<!-- Generated by IcoMoon.io -->
<svg version="1.1" xmlns="http://www.w3.org/2000/svg" width="32" height="32" viewBox="0 0 32 32">
<title>bem-grey</title>
<path fill="#7a7a7a" d="M0 6.838h7.48v2.2h-7.48v-2.2zM0 2.752h7.48v2.2h-7.48v-2.2zM13.421 10.893h-13.421v2.2h12.918c1.414 0 4.714 0.032 5.94 2.011v-1.226c-0.598-1.948-2.358-2.985-5.437-2.985v0zM13.452 14.979h-13.452v2.199h12.918c3.142 0 5.123 0.125 5.94 0.566v-0.974c-0.63-1.54-3.269-1.791-5.407-1.791v0zM13.421 25.349h-13.421v-2.2h12.918c1.414 0 4.714-0.032 5.94-2.011v1.226c-0.598 1.948-2.358 2.985-5.437 2.985v0zM13.452 21.263h-13.452v-2.2h12.918c3.142 0 5.123-0.125 5.94-0.566v0.974c-0.63 1.541-3.269 1.792-5.407 1.792v0zM22.126 29.153h9.869v-1.352h-9.586c-0.849 0-2.86-0.032-3.583-1.194v0.754c0.346 1.162 1.414 1.792 3.3 1.792zM22.095 26.67h9.869v-1.352h-9.555c-1.917 0-3.112-0.063-3.583-0.346v0.598c0.378 0.942 1.98 1.1 3.269 1.1v0z"></path>
</svg>
