<!-- Generated by IcoMoon.io -->
<svg version="1.1" xmlns="http://www.w3.org/2000/svg" width="32" height="32" viewBox="0 0 32 32">
<title>bem</title>
<path d="M0 6.837h7.481v2.2h-7.481v-2.2zM0 2.75h7.481v2.2h-7.481v-2.2zM13.422 10.892h-13.422v2.2h12.919c1.415 0 4.715 0.031 5.941 2.012v-1.226c-0.597-1.949-2.357-2.986-5.438-2.986zM13.454 14.978h-13.454v2.2h12.919c3.143 0 5.124 0.126 5.941 0.566v-0.974c-0.629-1.54-3.269-1.792-5.407-1.792zM13.422 25.351h-13.422v-2.2h12.919c1.415 0 4.715-0.031 5.941-2.012v1.226c-0.597 1.949-2.357 2.986-5.438 2.986zM13.454 21.265h-13.454v-2.2h12.919c3.143 0 5.124-0.126 5.941-0.566v0.974c-0.629 1.54-3.269 1.792-5.407 1.792zM22.13 29.155h9.87v-1.352h-9.587c-0.849 0-2.86-0.031-3.583-1.195v0.755c0.346 1.163 1.415 1.792 3.3 1.792zM22.098 26.671h9.87v-1.352h-9.556c-1.918 0-3.112-0.063-3.584-0.346v0.597c0.377 0.943 1.98 1.1 3.269 1.1z"></path>
</svg>
