<!-- Generated by IcoMoon.io -->
<svg version="1.1" xmlns="http://www.w3.org/2000/svg" width="32" height="32" viewBox="0 0 32 32">
<title>bootstrap-4-grey</title>
<path fill="#4b4b4b" d="M0 27.873c0 2.278 1.847 4.127 4.127 4.127h23.748c2.28 0 4.127-1.847 4.127-4.127v-23.747c-0.001-2.28-1.848-4.127-4.128-4.127h-23.747c-2.28 0-4.127 1.847-4.127 4.127v23.747z"></path>
<path fill="#fff" d="M13.27 14.154v-4.531h3.988c0.38 0 0.746 0.032 1.1 0.095s0.664 0.177 0.936 0.339c0.271 0.163 0.489 0.389 0.652 0.678s0.244 0.66 0.244 1.112c0 0.814-0.244 1.402-0.732 1.764-0.489 0.362-1.112 0.543-1.873 0.543h-4.315zM9.010 6.313v19.375h9.389c0.868 0 1.714-0.109 2.537-0.325 0.823-0.218 1.555-0.552 2.198-1.004s1.153-1.036 1.533-1.75c0.38-0.714 0.57-1.56 0.57-2.537 0-1.212-0.294-2.248-0.882-3.107s-1.478-1.46-2.673-1.805c0.868-0.416 1.524-0.95 1.967-1.601s0.664-1.466 0.664-2.442c0-0.905-0.15-1.664-0.448-2.28-0.298-0.614-0.719-1.108-1.262-1.478-0.543-0.371-1.194-0.637-1.953-0.8-0.76-0.163-1.601-0.244-2.524-0.244l-9.116-0.003zM13.27 22.377v-5.318h4.64c0.923 0 1.664 0.212 2.225 0.637s0.841 1.135 0.841 2.13c0 0.507-0.086 0.923-0.257 1.248s-0.402 0.584-0.692 0.773c-0.289 0.189-0.625 0.325-1.004 0.407-0.38 0.081-0.778 0.122-1.194 0.122l-4.558 0.001z"></path>
</svg>
