<!-- Generated by IcoMoon.io -->
<svg version="1.1" xmlns="http://www.w3.org/2000/svg" width="32" height="32" viewBox="0 0 32 32">
<title>git</title>
<path fill="#2f2707" d="M19.123 13.902c-0.7 0-1.221 0.344-1.221 1.17 0 0.623 0.343 1.055 1.183 1.055 0.712 0 1.195-0.419 1.195-1.081 0-0.75-0.433-1.144-1.157-1.144zM17.724 19.739c-0.166 0.203-0.331 0.419-0.331 0.674 0 0.508 0.648 0.661 1.539 0.661 0.738 0 1.742-0.052 1.742-0.738 0-0.408-0.483-0.433-1.094-0.471l-1.856-0.127zM21.488 13.94c0.229 0.293 0.471 0.7 0.471 1.284 0 1.412-1.106 2.238-2.708 2.238-0.407 0-0.776-0.051-1.005-0.114l-0.42 0.674 1.246 0.076c2.2 0.14 3.497 0.204 3.497 1.895 0 1.463-1.284 2.289-3.497 2.289-2.302 0-3.179-0.585-3.179-1.59 0-0.572 0.254-0.877 0.7-1.297-0.42-0.177-0.559-0.495-0.559-0.839 0-0.28 0.14-0.534 0.369-0.776s0.483-0.483 0.788-0.763c-0.623-0.305-1.094-0.966-1.094-1.908 0-1.462 0.967-2.466 2.912-2.466 0.547 0 0.878 0.050 1.17 0.127h2.48v1.081l-1.17 0.089zM24.896 11.629c-0.725 0-1.145-0.42-1.145-1.145s0.419-1.119 1.145-1.119c0.738 0 1.157 0.395 1.157 1.119s-0.42 1.145-1.157 1.145zM23.255 19.271v-1.004l0.649-0.089c0.178-0.026 0.203-0.064 0.203-0.255v-3.739c0-0.139-0.038-0.229-0.166-0.267l-0.686-0.242 0.14-1.030h2.633v5.277c0 0.204 0.012 0.229 0.204 0.255l0.648 0.089v1.004h-3.625zM31.908 18.778c-0.547 0.267-1.348 0.509-2.073 0.509-1.513 0-2.085-0.61-2.085-2.047v-3.331c0-0.076 0-0.127-0.102-0.127h-0.89v-1.132c1.119-0.127 1.564-0.687 1.704-2.073h1.208v1.806c0 0.089 0 0.127 0.102 0.127h1.793v1.272h-1.895v3.039c0 0.75 0.178 1.043 0.865 1.043 0.357 0 0.725-0.089 1.030-0.203l0.344 1.119z"></path>
<path fill="#de4c36" d="M13.066 15.441l-5.814-5.814c-0.155-0.155-0.37-0.251-0.606-0.251s-0.451 0.096-0.606 0.251l-1.207 1.207 1.532 1.531c0.098-0.034 0.21-0.054 0.328-0.054 0.281 0 0.536 0.114 0.72 0.298v0c0.184 0.184 0.298 0.439 0.298 0.72 0 0.12-0.021 0.234-0.058 0.341l0.002-0.007 1.476 1.476c0.357-0.123 0.769-0.043 1.054 0.242 0.185 0.185 0.299 0.44 0.299 0.722s-0.114 0.537-0.299 0.722v0c-0.185 0.185-0.44 0.299-0.722 0.299-0.564 0-1.021-0.457-1.021-1.020 0-0.14 0.028-0.274 0.079-0.395l-0.002 0.007-1.377-1.377-0 3.623c0.104 0.052 0.193 0.116 0.27 0.193l-0-0c0.185 0.185 0.299 0.44 0.299 0.722s-0.114 0.537-0.299 0.722v0c-0.399 0.399-1.045 0.399-1.443 0-0.185-0.185-0.299-0.44-0.299-0.722 0-0.424 0.258-0.787 0.626-0.942l0.007-0.003v-3.656c-0.13-0.054-0.241-0.129-0.334-0.223l-0-0c-0.302-0.302-0.375-0.745-0.22-1.116l-1.51-1.51-3.987 3.986c-0.155 0.155-0.251 0.37-0.251 0.607s0.096 0.451 0.251 0.607l5.814 5.814c0.155 0.155 0.37 0.251 0.606 0.251s0.451-0.096 0.606-0.251l5.787-5.787c0.155-0.155 0.251-0.37 0.251-0.607s-0.096-0.451-0.251-0.607v0z"></path>
</svg>
