<!-- Generated by IcoMoon.io -->
<svg version="1.1" xmlns="http://www.w3.org/2000/svg" width="32" height="32" viewBox="0 0 32 32">
<title>pug</title>
<path fill="#efcca3" d="M26.85 12.725c-0.050-1.1 0.1-2.075-0.4-2.9-1.2-2.050-4.2-3.25-10.2-3.25v0.175c0 0-0.125 0-0.125 0s0.125 0 0.125 0v-0.175c-6 0-9.15 1.2-10.35 3.275-0.475 0.85-0.425 1.8-0.5 2.9-0.050 0.875-0.45 1.8-0.275 2.8 0.2 1.3 0.275 2.6 0.475 3.8 0.15 0.975 1.5 1.8 1.625 2.725 0.35 2.55 3 3.725 9 3.725v0.2h0.025v-0.2c6 0 8.55-1.175 8.875-3.725 0.125-0.95 1.375-1.75 1.525-2.725 0.2-1.2 0.275-2.5 0.475-3.8 0.175-1-0.225-1.95-0.275-2.825z"></path>
<path fill="#ccac8d" d="M16.15 13.625c1.075 0.025 1.825 0.7 2.525 1.325 0.825 0.725 2.225 1.225 2.8 1.85s1.325 1.25 1.6 2.225c0.275 0.975 0.35 2.225 0.35 2.55s0.175 0.25 0.675 0c1.175-0.575 2.475-2.125 2.475-2.125-0.15 0.975-1.425 1.85-1.55 2.775-0.3 2.55-2.775 3.775-8.9 3.775h0.125z"></path>
<path fill="#ccac8d" d="M20.1 11.675c0.225 0.775 1.025 3.4-0.525 2.525 0 0 0.65 0.375 1.050 1.8 0.425 1.425 1.45 1.6 1.45 1.6s1.675 0.325 2.925-0.75c1.050-0.9 1.225-2.5 0.775-3.725-0.45-1.2-1.25-1.575-2.425-1.825-1.175-0.275-3.525-0.5-3.25 0.375z"></path>
<path fill="#000" d="M25.275 14.525c0 1.215-0.985 2.2-2.2 2.2s-2.2-0.985-2.2-2.2c0-1.215 0.985-2.2 2.2-2.2s2.2 0.985 2.2 2.2z"></path>
<path fill="#fff" d="M23.075 13.55c0 0.318-0.257 0.575-0.575 0.575s-0.575-0.257-0.575-0.575c0-0.318 0.257-0.575 0.575-0.575s0.575 0.257 0.575 0.575z"></path>
<path fill="#efcca3" d="M19.725 14.425c0 0 1.975 1.35 3.050 2.675s1.050 1.575 1.050 1.575l-0.775 0.35c0 0-1.1-2.075-2.45-2.85-1.375-0.775-1.525-1.425-1.525-1.425l0.65-0.325z"></path>
<path fill="#ccac8d" d="M16.225 13.625c-1.075 0.025-1.875 0.7-2.6 1.325-0.825 0.725-2.275 1.225-2.85 1.85s-1.35 1.25-1.625 2.225c-0.275 0.975-0.375 2.225-0.375 2.55s0.050 0.35-0.675 0c-1.175-0.55-2.475-2.125-2.475-2.125 0.15 0.975 1.425 1.85 1.55 2.775 0.35 2.55 2.825 3.775 8.95 3.775h0.125z"></path>
<path fill="#56332b" d="M22.025 17.85c-1.2-1.475-3.125-2.85-5.8-2.85h-0.025c-2.675 0-4.6 1.375-5.8 2.85-1.25 1.525-1.15 2.125-1.15 3.575 0 5.25 1.85 3.75 3.075 4.4 1.25 0.625 2.55 0.425 3.875 0.425v0h0.025c1.35 0 2.625 0.175 3.875-0.45 1.225-0.625 3.075 0.925 3.075-4.325 0.025-1.45 0.1-2.1-1.15-3.625z"></path>
<path fill="#442823" d="M16.1 16.3c0 0-0.175 2.425-0.525 2.9l0.65-0.15-0.125-2.75z"></path>
<path fill="#442823" d="M16.275 16.3c0 0 0.175 2.425 0.525 2.9l-0.65-0.15 0.125-2.75z"></path>
<path fill="#56332b" d="M14.175 15.725c-0.25-0.575 0.65-1.5 2.075-1.525 1.425 0 2.325 0.925 2.075 1.525s-1.15 0.775-2.075 0.8c-0.9-0.025-1.825-0.2-2.075-0.8z"></path>
<path fill="#000" d="M16.25 16.3c0-0.1 0.85-0.125 1.3-0.425 0 0-0.925 0.3-1.125 0.175-0.2-0.1-0.25-0.4-0.25-0.4s-0.075 0.3-0.225 0.4c-0.175 0.1-1.225-0.175-1.225-0.175s1.4 0.35 1.4 0.425c0 0.075-0.025 0.325-0.025 0.5 0 0.625 0 2.175 0.1 2.3 0.15 0.225 0.1-1.675 0.1-2.3-0.025-0.2-0.025-0.4-0.050-0.5z"></path>
<path fill="#7f4a41" d="M16.3 19.65c0.425 0 1.175 0.3 1.85 0.775-0.65-0.725-1.425-1.225-1.85-1.225-0.45 0-1.4 0.55-2.075 1.35 0.7-0.55 1.6-0.9 2.075-0.9z"></path>
<path fill="#442823" d="M16.125 24.075c-0.95 0-1.875-0.3-2.725-0.525-0.175-0.050-0.35 0.075-0.525 0.025-1.575-0.5-2.85-1.35-3.625-2.425 0 0.075 0 0.175 0 0.25 0 5.25 1.85 3.775 3.075 4.4 1.25 0.625 2.55 0.425 3.875 0.425v0h0.025c1.35 0 2.625 0.175 3.875-0.45 1.225-0.625 3.075 0.9 3.075-4.35 0-0.2 0-0.4 0.025-0.575-0.725 1.175-2.050 2.1-3.7 2.65-0.15 0.050-0.5-0.075-0.65-0.050-0.9 0.3-1.7 0.625-2.725 0.625z"></path>
<path fill="#442823" d="M13.75 21.25c0 0-0.625 1.875-0.2 2.7l-0.575-0.25c0 0 0.425-1.9 0.775-2.45z"></path>
<path fill="#442823" d="M18.7 21.25c0 0 0.625 1.875 0.2 2.7l0.575-0.25c0 0-0.45-1.9-0.775-2.45z"></path>
<path fill="#ccac8d" d="M12.15 11.675c-0.225 0.775-1.025 3.4 0.525 2.525 0 0-0.65 0.375-1.050 1.8s-1.45 1.6-1.45 1.6-1.675 0.325-2.925-0.75c-1.050-0.9-1.225-2.5-0.775-3.725s1.25-1.575 2.425-1.825c1.175-0.275 3.5-0.5 3.25 0.375z"></path>
<path fill="#000" d="M16.225 19.2c0.675 0 2.775 1.45 2.8 3.225 0-0.025 0-0.050 0-0.1 0-1.85-1.7-3.325-2.8-3.325s-2.8 1.5-2.8 3.325c0 0.025 0 0.050 0 0.1 0.025-1.775 2.125-3.225 2.8-3.225z"></path>
<path fill="#331712" d="M16.871 15.326c0.052 0.201 0.007 0.385-0.1 0.413s-0.236-0.113-0.287-0.313c-0.052-0.201-0.007-0.385 0.1-0.413s0.236 0.113 0.287 0.313z"></path>
<path fill="#331712" d="M15.788 15.436c-0.061 0.198-0.197 0.332-0.302 0.299s-0.141-0.22-0.080-0.417c0.061-0.198 0.197-0.332 0.302-0.299s0.141 0.22 0.080 0.417z"></path>
<path fill="#000" d="M11.5 14.525c0 1.215-0.985 2.2-2.2 2.2s-2.2-0.985-2.2-2.2c0-1.215 0.985-2.2 2.2-2.2s2.2 0.985 2.2 2.2z"></path>
<path fill="#fff" d="M10.45 13.55c0 0.318-0.257 0.575-0.575 0.575s-0.575-0.257-0.575-0.575c0-0.318 0.257-0.575 0.575-0.575s0.575 0.257 0.575 0.575z"></path>
<path fill="#7f4a41" d="M16.875 14.55c0-0.025-0.575 0.25-0.725 0.275-0.15-0.025-0.725-0.3-0.725-0.275 0 0 0.475 0 0.725 0s0.725 0 0.725 0z"></path>
<path fill="#efcca3" d="M12.5 14.425c0 0-1.975 1.35-3.050 2.675s-1.050 1.575-1.050 1.575l0.775 0.35c0 0 1.1-2.075 2.45-2.85s1.525-1.425 1.525-1.425l-0.65-0.325z"></path>
<path fill="#ccac8d" d="M8.175 10.425c0 0-0.675 1.85-2.175 2.625 0 0 2.35-0.275 2.175-2.625z"></path>
<path fill="#ccac8d" d="M23.95 10.425c0 0 0.675 1.85 2.175 2.625 0 0-2.35-0.275-2.175-2.625z"></path>
<path fill="#ccac8d" d="M19.675 13.875c0 0-1.475-1.55-3.45-1.6v0c-0.025 0 0.050 0 0.025 0s0.025 0 0.025 0v0c-2 0.050-3.45 1.6-3.45 1.6 1.725-1.2 3.2-1.175 3.45-1.175v0c0 0 0 0 0 0s0 0 0 0v0c-0.025 0 1.675-0.025 3.4 1.175z"></path>
<path fill="#ccac8d" d="M17.95 10.625c0 0-0.75-1.050-1.75-1.075v0c0 0 0.025 0 0.025 0s0.025 0 0.025 0v0c-0.75 0.025-1.725 1.075-1.725 1.075 0.85-0.825 1.725-0.8 1.725-0.8v0c0 0 0 0 0 0s0 0 0 0v0c0 0 0.825-0.025 1.7 0.8z"></path>
<path fill="#ccac8d" d="M9.3 18.3c0 0-1.175 0.575-2.025 0.225v0c0 0-0.025 0-0.025 0s0 0 0 0v0c-0.75-0.425-1.125-1.7-1.125-1.7s0.75 2.25 3.175 1.475z"></path>
<path fill="#ccac8d" d="M23 18.3c0 0 1.175 0.575 2.025 0.225v0c0 0 0 0 0 0s0 0 0 0v0c1-0.425 1.15-1.7 1.15-1.7s-0.75 2.25-3.175 1.475z"></path>
<path fill="#ccac8d" d="M10.65 10.3c0.65-0.125 1.725-0.15 2.575 0.125 1.075 0.375 0.2 1.75 0.425 1.825s0.525-0.95 2.525-0.85c2.025 0.1 2.25 1 2.525 0.85s-0.275-2.5 2.75-1.95c0 0-3.175-0.85-3.025 1.45 0 0-1.825-1.4-4.375-0.15 0.025 0 0.675-2.15-3.4-1.3z"></path>
<path fill="#ccac8d" d="M21.725 10.3c0.050 0 0.075 0.025 0.1 0.025s-0.025-0.025-0.1-0.025z"></path>
<path fill="#ccac8d" d="M21.725 10.3c0 0 0 0 0 0s0 0 0 0z"></path>
<path fill="#ccac8d" d="M9.775 7.225c0 0-2.7 3.4-3.1 4.7-0.4 1.325-0.7 6.75-1.050 7.525l-1.25-5.35 2.3-5.575 3.1-1.3z"></path>
<path fill="#ccac8d" d="M22.475 7.225c0 0 2.7 3.4 3.1 4.7 0.4 1.325 0.7 6.75 1.050 7.525l1.25-5.35-2.3-5.575-3.1-1.3z"></path>
<path fill="#56332b" d="M22.35 7.225c0 0 2.9 2.425 3.75 5.225s0.5 6.2 1.15 6.625c0.925 0.6 1.975-2.975 2.325-3.35 0.55-0.6 2.375-2.125 2.5-2.4s-3.7-4.45-5.375-5.275c-2.025-0.95-4.525-1.025-4.35-0.825z"></path>
<path fill="#442823" d="M24.825 8.725c0 0 3.425 4.375 3.375 9.825l1.375-2.8c-0.025 0-1.225-3.575-4.75-7.025z"></path>
<path fill="#56332b" d="M9.775 7.225c0 0-2.9 2.425-3.75 5.225s-0.5 6.2-1.15 6.625c-0.925 0.6-1.975-2.975-2.325-3.35-0.55-0.6-2.375-2.125-2.5-2.4s3.7-4.45 5.375-5.275c2.025-0.95 4.525-1.025 4.35-0.825z"></path>
<path fill="#442823" d="M7.3 8.725c0 0-3.425 4.375-3.375 9.825l-1.35-2.8c0 0 1.2-3.575 4.725-7.025z"></path>
<path fill="#ccac8d" d="M5.45 18.65c0 0 0.25 1.35 0.65 1.775s0.125-0.325 0.125-0.325-0.425-0.225-0.35-1.95-0.425 0.5-0.425 0.5z"></path>
<path fill="#ccac8d" d="M26.775 18.65c0 0-0.25 1.35-0.65 1.775s-0.125-0.325-0.125-0.325 0.425-0.225 0.35-1.95 0.425 0.5 0.425 0.5z"></path>
<path fill="#442823" d="M13.825 17.625c0 0.11-0.090 0.2-0.2 0.2s-0.2-0.090-0.2-0.2c0-0.11 0.090-0.2 0.2-0.2s0.2 0.090 0.2 0.2z"></path>
<path fill="#442823" d="M12.675 18.825c0 0.11-0.090 0.2-0.2 0.2s-0.2-0.090-0.2-0.2c0-0.11 0.090-0.2 0.2-0.2s0.2 0.090 0.2 0.2z"></path>
<path fill="#442823" d="M12.3 17.625c0 0.11-0.090 0.2-0.2 0.2s-0.2-0.090-0.2-0.2c0-0.11 0.090-0.2 0.2-0.2s0.2 0.090 0.2 0.2z"></path>
<path fill="#442823" d="M18.7 17.625c0 0.11-0.090 0.2-0.2 0.2s-0.2-0.090-0.2-0.2c0-0.11 0.090-0.2 0.2-0.2s0.2 0.090 0.2 0.2z"></path>
<path fill="#442823" d="M19.85 18.825c0 0.11-0.090 0.2-0.2 0.2s-0.2-0.090-0.2-0.2c0-0.11 0.090-0.2 0.2-0.2s0.2 0.090 0.2 0.2z"></path>
<path fill="#442823" d="M20.225 17.625c0 0.11-0.090 0.2-0.2 0.2s-0.2-0.090-0.2-0.2c0-0.11 0.090-0.2 0.2-0.2s0.2 0.090 0.2 0.2z"></path>
</svg>
