<!-- Generated by IcoMoon.io -->
<svg version="1.1" xmlns="http://www.w3.org/2000/svg" width="32" height="32" viewBox="0 0 32 32">
<title>Sass_Logo_Color-grey</title>
<path fill="#8b8b8b" d="M27.527 17.781c-1.115 0.006-2.085 0.274-2.896 0.672-0.298-0.59-0.596-1.115-0.648-1.501-0.058-0.45-0.128-0.724-0.058-1.261s0.385-1.302 0.38-1.361-0.070-0.333-0.712-0.339-1.197 0.123-1.261 0.292-0.187 0.555-0.269 0.952c-0.111 0.584-1.285 2.669-1.956 3.761-0.216-0.426-0.403-0.8-0.444-1.098-0.058-0.45-0.128-0.724-0.058-1.261s0.385-1.302 0.38-1.361-0.070-0.333-0.712-0.339-1.197 0.123-1.261 0.292-0.134 0.566-0.269 0.952c-0.134 0.385-1.693 3.866-2.102 4.765-0.21 0.461-0.391 0.829-0.52 1.080v0c0 0-0.006 0.018-0.023 0.047-0.111 0.216-0.175 0.333-0.175 0.333s0 0 0 0.006c-0.088 0.158-0.181 0.304-0.228 0.304-0.035 0-0.099-0.42 0.012-0.993 0.234-1.209 0.788-3.089 0.782-3.153 0-0.035 0.105-0.362-0.362-0.531-0.455-0.169-0.619 0.111-0.66 0.111s-0.070 0.099-0.070 0.099 0.508-2.114-0.969-2.114c-0.923 0-2.196 1.010-2.826 1.921-0.397 0.216-1.244 0.677-2.149 1.174-0.345 0.193-0.701 0.385-1.034 0.566-0.023-0.023-0.047-0.053-0.070-0.076-1.787-1.91-5.092-3.258-4.952-5.822 0.053-0.934 0.374-3.387 6.347-6.365 4.917-2.423 8.829-1.752 9.507-0.263 0.969 2.126-2.096 6.073-7.177 6.645-1.939 0.216-2.955-0.531-3.212-0.812-0.269-0.292-0.309-0.309-0.409-0.251-0.163 0.088-0.058 0.35 0 0.502 0.152 0.397 0.777 1.098 1.834 1.442 0.934 0.304 3.206 0.473 5.956-0.59 3.077-1.191 5.483-4.502 4.777-7.276-0.707-2.815-5.378-3.743-9.799-2.172-2.628 0.934-5.477 2.406-7.527 4.321-2.435 2.277-2.82 4.257-2.663 5.086 0.566 2.943 4.625 4.858 6.248 6.277-0.082 0.047-0.158 0.088-0.222 0.123-0.812 0.403-3.907 2.020-4.677 3.731-0.876 1.939 0.14 3.328 0.812 3.515 2.085 0.578 4.228-0.461 5.378-2.178s1.010-3.947 0.479-4.969c-0.006-0.012-0.012-0.023-0.023-0.035 0.21-0.123 0.426-0.251 0.636-0.374 0.415-0.245 0.823-0.473 1.174-0.66-0.199 0.543-0.345 1.191-0.415 2.126-0.088 1.098 0.362 2.523 0.952 3.083 0.263 0.245 0.572 0.251 0.771 0.251 0.689 0 0.999-0.572 1.343-1.25 0.42-0.829 0.8-1.793 0.8-1.793s-0.473 2.604 0.812 2.604c0.467 0 0.94-0.607 1.15-0.917 0 0.006 0 0.006 0 0.006s0.012-0.018 0.035-0.058c0.047-0.076 0.076-0.123 0.076-0.123s0-0.006 0-0.012c0.187-0.327 0.607-1.069 1.232-2.301 0.806-1.588 1.582-3.574 1.582-3.574s0.070 0.485 0.309 1.291c0.14 0.473 0.432 0.993 0.666 1.495-0.187 0.263-0.304 0.409-0.304 0.409s0 0 0.006 0.006c-0.152 0.199-0.315 0.415-0.496 0.625-0.637 0.759-1.396 1.629-1.501 1.88-0.123 0.298-0.093 0.514 0.14 0.689 0.169 0.128 0.473 0.146 0.782 0.128 0.572-0.041 0.975-0.181 1.174-0.269 0.309-0.111 0.672-0.28 1.010-0.531 0.625-0.461 1.004-1.121 0.969-1.991-0.018-0.479-0.175-0.958-0.368-1.407 0.058-0.082 0.111-0.163 0.169-0.245 0.987-1.442 1.752-3.025 1.752-3.025s0.070 0.485 0.309 1.291c0.117 0.409 0.356 0.853 0.566 1.285-0.928 0.753-1.501 1.629-1.705 2.201-0.368 1.063-0.082 1.542 0.461 1.653 0.245 0.053 0.596-0.064 0.853-0.175 0.327-0.105 0.712-0.286 1.080-0.555 0.625-0.461 1.226-1.104 1.191-1.974-0.018-0.397-0.123-0.788-0.269-1.168 0.788-0.327 1.804-0.508 3.101-0.356 2.78 0.327 3.328 2.061 3.223 2.791s-0.689 1.127-0.882 1.25-0.257 0.163-0.239 0.251c0.023 0.128 0.117 0.123 0.28 0.099 0.228-0.041 1.46-0.59 1.512-1.933 0.088-1.717-1.547-3.591-4.438-3.574zM6.085 25.010c-0.923 1.004-2.207 1.384-2.762 1.063-0.596-0.345-0.362-1.828 0.771-2.89 0.689-0.648 1.577-1.25 2.166-1.618 0.134-0.082 0.333-0.199 0.572-0.345 0.041-0.023 0.064-0.035 0.064-0.035v0c0.047-0.029 0.093-0.058 0.14-0.088 0.415 1.518 0.018 2.855-0.952 3.912zM12.8 20.444c-0.321 0.782-0.993 2.785-1.401 2.674-0.35-0.093-0.566-1.612-0.070-3.112 0.251-0.753 0.782-1.653 1.092-2.003 0.502-0.561 1.057-0.747 1.191-0.52 0.169 0.298-0.613 2.47-0.812 2.961zM18.342 23.095c-0.134 0.070-0.263 0.117-0.321 0.082-0.041-0.023 0.058-0.117 0.058-0.117s0.695-0.747 0.969-1.086c0.158-0.199 0.345-0.432 0.543-0.695 0 0.023 0 0.053 0 0.076 0 0.893-0.864 1.495-1.25 1.74zM22.616 22.12c-0.099-0.070-0.082-0.304 0.251-1.034 0.128-0.286 0.432-0.765 0.952-1.226 0.058 0.187 0.099 0.368 0.093 0.537-0.006 1.127-0.812 1.547-1.296 1.723z"></path>
</svg>
