<!-- Generated by IcoMoon.io -->
<svg version="1.1" xmlns="http://www.w3.org/2000/svg" width="32" height="32" viewBox="0 0 32 32">
<title>bootstrap-4</title>
<path fill="#563d7c" d="M0 27.874c0 2.279 1.847 4.126 4.126 4.126h23.748c2.279 0 4.126-1.847 4.126-4.126v-23.748c0-2.279-1.847-4.126-4.126-4.126h-23.748c-2.279 0-4.126 1.847-4.126 4.126v23.748z"></path>
<path fill="#fff" d="M13.27 14.155v-4.532h3.989c0.38 0 0.746 0.032 1.099 0.095s0.665 0.176 0.936 0.339c0.271 0.163 0.488 0.389 0.651 0.678s0.244 0.66 0.244 1.113c0 0.814-0.244 1.402-0.733 1.764s-1.113 0.543-1.872 0.543h-4.314zM9.009 6.313v19.375h9.389c0.868 0 1.714-0.108 2.537-0.326s1.556-0.552 2.198-1.004c0.642-0.452 1.153-1.036 1.533-1.75s0.57-1.56 0.57-2.537c0-1.212-0.294-2.248-0.882-3.107s-1.479-1.461-2.673-1.805c0.868-0.416 1.524-0.95 1.968-1.601s0.665-1.465 0.665-2.442c0-0.905-0.149-1.664-0.448-2.279s-0.719-1.108-1.262-1.479c-0.543-0.371-1.194-0.638-1.954-0.8s-1.601-0.244-2.524-0.244h-9.118zM13.27 22.377v-5.319h4.64c0.923 0 1.664 0.212 2.225 0.638s0.841 1.135 0.841 2.13c0 0.507-0.086 0.923-0.258 1.248s-0.402 0.584-0.692 0.773c-0.289 0.19-0.624 0.326-1.004 0.407s-0.778 0.122-1.194 0.122h-4.559z"></path>
</svg>
