<!-- Generated by IcoMoon.io -->
<svg version="1.1" xmlns="http://www.w3.org/2000/svg" width="32" height="32" viewBox="0 0 32 32">
<title>git-grey</title>
<path fill="#262626" d="M19.123 13.9c-0.7 0-1.221 0.343-1.221 1.17 0 0.623 0.343 1.056 1.183 1.056 0.712 0 1.196-0.42 1.196-1.082 0-0.75-0.433-1.144-1.157-1.144v0zM17.724 19.738c-0.165 0.204-0.33 0.419-0.33 0.673 0 0.508 0.648 0.662 1.539 0.662 0.737 0 1.742-0.051 1.742-0.737 0-0.407-0.484-0.433-1.094-0.471l-1.856-0.127zM21.489 13.938c0.229 0.293 0.471 0.7 0.471 1.285 0 1.412-1.106 2.237-2.708 2.237-0.407 0-0.776-0.051-1.005-0.114l-0.42 0.673 1.247 0.077c2.2 0.141 3.497 0.204 3.497 1.894 0 1.463-1.284 2.289-3.497 2.289-2.301 0-3.18-0.585-3.18-1.59 0-0.572 0.255-0.877 0.699-1.297-0.42-0.178-0.559-0.495-0.559-0.838 0-0.28 0.14-0.534 0.369-0.776 0.229-0.241 0.483-0.483 0.788-0.763-0.623-0.305-1.093-0.966-1.093-1.907 0-1.462 0.966-2.467 2.912-2.467 0.547 0 0.878 0.050 1.17 0.127h2.479v1.080l-1.17 0.088zM24.896 11.628c-0.724 0-1.144-0.42-1.144-1.146 0-0.724 0.42-1.119 1.144-1.119 0.737 0 1.157 0.394 1.157 1.119 0 0.726-0.42 1.146-1.157 1.146zM23.255 19.269v-1.004l0.649-0.088c0.178-0.026 0.204-0.064 0.204-0.255v-3.74c0-0.14-0.038-0.229-0.165-0.266l-0.686-0.242 0.14-1.029h2.633v5.277c0 0.204 0.013 0.229 0.204 0.255l0.649 0.088v1.004h-3.626zM31.908 18.776c-0.547 0.266-1.348 0.508-2.074 0.508-1.513 0-2.085-0.609-2.085-2.048v-3.331c0-0.077 0-0.127-0.102-0.127h-0.89v-1.132c1.12-0.128 1.564-0.687 1.704-2.074h1.208v1.806c0 0.088 0 0.127 0.102 0.127h1.793v1.272h-1.894v3.039c0 0.75 0.178 1.042 0.864 1.042 0.357 0 0.724-0.088 1.030-0.204l0.343 1.12z"></path>
<path fill="#757575" d="M13.066 15.439l-5.815-5.814c-0.335-0.335-0.878-0.335-1.212 0 0 0 0 0 0 0l-1.207 1.207 1.532 1.531c0.367-0.125 0.773-0.031 1.048 0.244 0.275 0.276 0.37 0.686 0.242 1.055l1.476 1.476c0.357-0.123 0.769-0.044 1.055 0.242 0.398 0.398 0.398 1.044 0 1.443 0 0 0 0 0 0-0.401 0.399-1.046 0.399-1.445 0.001-0.292-0.292-0.379-0.73-0.223-1.111l-1.376-1.376v3.622c0.1 0.050 0.191 0.114 0.27 0.193 0.398 0.398 0.398 1.044 0 1.444 0 0 0 0 0 0-0.399 0.399-1.044 0.399-1.443 0-0.398-0.398-0.399-1.044 0-1.444 0.096-0.096 0.21-0.172 0.334-0.223v-3.656c-0.125-0.051-0.239-0.127-0.334-0.223-0.302-0.302-0.375-0.745-0.22-1.116l-1.509-1.51-3.988 3.987c-0.335 0.335-0.335 0.878 0 1.213 0 0 0 0 0 0l5.815 5.814c0.335 0.335 0.878 0.335 1.213 0l5.787-5.787c0.335-0.335 0.335-0.878 0-1.213z"></path>
</svg>
