<!-- Generated by IcoMoon.io -->
<svg version="1.1" xmlns="http://www.w3.org/2000/svg" width="32" height="32" viewBox="0 0 32 32">
<title>Gulpjs_Logo-grey</title>
<path fill="#737373" d="M15.934 25.195c-1.869 0-3.307-0.281-4.002-0.447-0.471-0.116-0.852-0.232-1.141-0.356l0.926 1.579 0.364 4.936c0 0.554 1.761 1.001 3.928 1.001s3.928-0.447 3.928-1.001l0.289-4.994 0.877-1.53c-0.289 0.124-0.678 0.24-1.158 0.356-0.703 0.174-2.142 0.455-4.010 0.455zM21.127 9.129c-1.373 0.19-3.192 0.298-5.118 0.298s-3.746-0.107-5.118-0.298c-0.678-0.091-1.216-0.207-1.596-0.331-0.091-0.033-0.248-0.083-0.389-0.165l0.852 7.814c0.041-0.132 0.083-0.273 0.132-0.405 0.099-0.273 0.215-0.546 0.347-0.802 0.132-0.265 0.273-0.513 0.43-0.744s0.314-0.447 0.488-0.645c0.174-0.198 0.356-0.364 0.537-0.504s0.364-0.248 0.554-0.331c0.19-0.083 0.372-0.116 0.554-0.116 0.207 0 0.413 0.058 0.612 0.174s0.38 0.298 0.554 0.562c0.041 0.058 0.066 0.116 0.074 0.174s0.017 0.116 0.017 0.165c0 0.124-0.033 0.223-0.091 0.289-0.058 0.074-0.132 0.107-0.207 0.107s-0.141-0.041-0.207-0.116c-0.066-0.074-0.132-0.19-0.215-0.339-0.074-0.132-0.157-0.223-0.248-0.289-0.091-0.058-0.182-0.091-0.289-0.091-0.165 0-0.339 0.066-0.521 0.198s-0.364 0.314-0.546 0.529c-0.182 0.223-0.356 0.471-0.521 0.761-0.165 0.281-0.314 0.579-0.438 0.877s-0.232 0.595-0.306 0.885c-0.074 0.289-0.116 0.546-0.116 0.777 0 0.074 0.008 0.157 0.017 0.24s0.033 0.157 0.058 0.223c0.025 0.066 0.066 0.124 0.116 0.165s0.116 0.066 0.19 0.066c0.083 0 0.182-0.025 0.289-0.083s0.223-0.132 0.339-0.223c0.116-0.091 0.232-0.198 0.356-0.314 0.116-0.116 0.232-0.24 0.331-0.356 0.099-0.124 0.19-0.24 0.273-0.347s0.141-0.207 0.174-0.289l0.322-0.967c0.041-0.107 0.091-0.182 0.157-0.223s0.132-0.066 0.198-0.066c0.033 0 0.066 0.008 0.099 0.017s0.058 0.025 0.091 0.050c0.025 0.025 0.050 0.050 0.058 0.091 0.017 0.033 0.025 0.083 0.025 0.132 0 0.132-0.008 0.256-0.033 0.372s-0.050 0.232-0.091 0.339c-0.033 0.108-0.074 0.223-0.124 0.331-0.041 0.108-0.091 0.223-0.132 0.347-0.008 0.017-0.025 0.058-0.050 0.132s-0.058 0.165-0.091 0.273c-0.033 0.108-0.074 0.232-0.116 0.372-0.041 0.132-0.083 0.273-0.124 0.413s-0.083 0.281-0.124 0.413c-0.041 0.132-0.074 0.256-0.107 0.372-0.033 0.108-0.058 0.198-0.074 0.273-0.025 0.074-0.033 0.116-0.041 0.132-0.008 0.041-0.033 0.091-0.058 0.149-0.025 0.050-0.058 0.108-0.091 0.149-0.033 0.050-0.074 0.091-0.116 0.116-0.041 0.033-0.083 0.050-0.132 0.050-0.074 0-0.124-0.025-0.165-0.074-0.033-0.050-0.050-0.141-0.050-0.273v-0.058c0-0.017 0-0.041 0-0.058 0-0.041 0.017-0.124 0.050-0.248s0.074-0.256 0.116-0.413c0.041-0.149 0.091-0.314 0.149-0.471 0.050-0.165 0.099-0.306 0.141-0.438-0.124 0.141-0.256 0.273-0.397 0.413-0.141 0.132-0.289 0.256-0.438 0.364s-0.306 0.198-0.455 0.265c-0.149 0.066-0.298 0.099-0.438 0.099-0.165 0-0.298-0.033-0.422-0.108-0.025-0.017-0.041-0.025-0.058-0.041l0.471 4.953c0.124 0.306 2.439 1.067 5.49 1.067s5.366-0.761 5.49-1.067l0.678-5.887c-0.058 0.050-0.108 0.099-0.165 0.149-0.198 0.182-0.38 0.339-0.554 0.463-0.174 0.132-0.339 0.232-0.504 0.306s-0.339 0.108-0.529 0.108c-0.174 0-0.314-0.041-0.405-0.116-0.099-0.074-0.141-0.182-0.141-0.314v-0.033c0-0.008 0-0.025 0-0.033 0.008-0.083 0.041-0.174 0.108-0.281s0.141-0.215 0.223-0.331c0.091-0.116 0.182-0.232 0.281-0.347s0.19-0.232 0.273-0.339c0.083-0.108 0.157-0.198 0.207-0.289 0.058-0.091 0.083-0.157 0.083-0.215 0-0.033-0.008-0.058-0.033-0.074s-0.058-0.025-0.116-0.025c-0.091 0-0.19 0.025-0.289 0.074s-0.198 0.116-0.289 0.19c-0.099 0.083-0.19 0.174-0.281 0.281s-0.174 0.215-0.256 0.322c-0.083 0.116-0.149 0.223-0.215 0.339s-0.124 0.215-0.165 0.314c-0.017 0.033-0.033 0.074-0.058 0.124-0.025 0.058-0.050 0.116-0.083 0.182s-0.066 0.141-0.099 0.215c-0.033 0.074-0.066 0.141-0.091 0.207s-0.050 0.124-0.074 0.174c-0.025 0.050-0.041 0.083-0.050 0.108s-0.033 0.074-0.058 0.141c-0.025 0.066-0.058 0.149-0.091 0.24s-0.074 0.19-0.108 0.289c-0.041 0.099-0.074 0.198-0.108 0.289s-0.066 0.174-0.091 0.24c-0.025 0.066-0.041 0.116-0.050 0.141-0.025 0.074-0.050 0.141-0.083 0.198-0.033 0.066-0.066 0.116-0.108 0.165s-0.091 0.083-0.141 0.116c-0.050 0.033-0.108 0.041-0.174 0.041-0.083 0-0.149-0.017-0.207-0.058s-0.083-0.116-0.083-0.232c0-0.058 0.008-0.108 0.025-0.165s0.033-0.116 0.050-0.174c0.025-0.058 0.041-0.108 0.066-0.165 0.025-0.050 0.041-0.108 0.058-0.157 0.124-0.273 0.256-0.546 0.38-0.827 0.132-0.273 0.256-0.546 0.372-0.819 0.025-0.058 0.050-0.116 0.074-0.165-0.008 0.008-0.017 0.017-0.025 0.025-0.149 0.149-0.298 0.273-0.447 0.389-0.149 0.108-0.298 0.198-0.447 0.265s-0.289 0.099-0.43 0.099c-0.091 0-0.174-0.017-0.24-0.041-0.066-0.033-0.116-0.074-0.149-0.124-0.041-0.050-0.066-0.116-0.083-0.182-0.008-0.025-0.008-0.050-0.017-0.074-0.041 0.033-0.083 0.066-0.124 0.091-0.141 0.099-0.281 0.182-0.422 0.248-0.141 0.058-0.265 0.091-0.372 0.091s-0.198-0.033-0.273-0.108c-0.066-0.074-0.107-0.198-0.107-0.38 0-0.124 0.017-0.273 0.058-0.438-0.058 0.108-0.132 0.215-0.223 0.322s-0.19 0.207-0.306 0.298c-0.116 0.091-0.248 0.165-0.389 0.223s-0.298 0.083-0.471 0.083c-0.074 0-0.149-0.008-0.223-0.025s-0.132-0.050-0.182-0.099c-0.050-0.050-0.099-0.108-0.132-0.19-0.033-0.074-0.050-0.174-0.050-0.298 0 0 0.008-0.041 0.017-0.124s0.041-0.207 0.091-0.38c0.050-0.174 0.124-0.397 0.232-0.678s0.248-0.612 0.438-1.009c0.050-0.108 0.107-0.182 0.165-0.223 0.066-0.041 0.132-0.066 0.207-0.066 0.033 0 0.066 0.008 0.099 0.017s0.066 0.025 0.099 0.041c0.033 0.017 0.058 0.050 0.074 0.074 0.017 0.033 0.025 0.066 0.025 0.108 0 0.025 0 0.050-0.008 0.074-0.008 0.050-0.033 0.108-0.074 0.182s-0.083 0.165-0.132 0.256c-0.050 0.099-0.107 0.198-0.165 0.314s-0.107 0.232-0.157 0.347c-0.050 0.124-0.091 0.24-0.124 0.372-0.033 0.124-0.058 0.248-0.058 0.364 0 0.050 0.008 0.091 0.033 0.132s0.058 0.058 0.116 0.058c0.149 0 0.298-0.050 0.43-0.149 0.141-0.099 0.265-0.223 0.38-0.372s0.223-0.306 0.314-0.471c0.091-0.165 0.174-0.322 0.232-0.463 0.041-0.091 0.083-0.19 0.116-0.298s0.066-0.207 0.108-0.298c0.041-0.091 0.083-0.165 0.132-0.223s0.116-0.091 0.19-0.091c0.083 0 0.149 0.033 0.198 0.091 0.050 0.066 0.074 0.141 0.074 0.223 0 0.050-0.017 0.116-0.050 0.207-0.033 0.083-0.074 0.182-0.116 0.298-0.050 0.108-0.099 0.232-0.157 0.356s-0.108 0.256-0.157 0.389c-0.050 0.132-0.091 0.256-0.116 0.38-0.033 0.124-0.050 0.24-0.050 0.347 0 0.099 0.050 0.149 0.149 0.149 0.074 0 0.157-0.025 0.265-0.074s0.215-0.116 0.339-0.207c0.033-0.025 0.058-0.050 0.091-0.066 0.033-0.132 0.074-0.256 0.116-0.372 0.083-0.215 0.165-0.43 0.248-0.637 0.083-0.215 0.157-0.405 0.232-0.579l1.050-2.654c0.041-0.107 0.099-0.182 0.165-0.223 0.074-0.041 0.141-0.066 0.215-0.066s0.141 0.025 0.198 0.066c0.058 0.050 0.091 0.124 0.091 0.223 0 0.050-0.008 0.099-0.033 0.157-0.017 0.058-0.041 0.116-0.074 0.174-0.058 0.132-0.124 0.289-0.207 0.471-0.083 0.19-0.165 0.389-0.256 0.612s-0.182 0.447-0.281 0.686c-0.099 0.24-0.19 0.471-0.281 0.695s-0.174 0.438-0.256 0.637c-0.083 0.198-0.149 0.38-0.207 0.521-0.025 0.066-0.050 0.141-0.074 0.223s-0.033 0.157-0.033 0.223c0 0.041 0.008 0.074 0.025 0.099s0.041 0.033 0.083 0.033c0.050 0 0.108-0.017 0.182-0.050s0.149-0.083 0.24-0.132c0.083-0.058 0.174-0.124 0.265-0.19 0.091-0.074 0.182-0.149 0.273-0.223s0.174-0.157 0.256-0.232c0.083-0.074 0.157-0.149 0.223-0.215 0.017-0.017 0.033-0.025 0.050-0.033 0.041-0.116 0.074-0.232 0.108-0.347 0.017-0.050 0.041-0.116 0.074-0.207s0.066-0.182 0.108-0.265c0.041-0.091 0.091-0.165 0.141-0.232s0.108-0.099 0.165-0.099c0.091 0 0.157 0.025 0.198 0.066s0.066 0.108 0.066 0.19c0 0.017 0 0.041-0.008 0.074s-0.008 0.074-0.017 0.116c-0.008 0.041-0.017 0.074-0.025 0.116-0.008 0.033-0.017 0.058-0.025 0.074 0.083-0.091 0.182-0.182 0.281-0.281 0.099-0.091 0.207-0.174 0.306-0.248 0.108-0.074 0.215-0.132 0.331-0.182 0.108-0.050 0.223-0.066 0.331-0.066 0.074 0 0.149 0.008 0.232 0.033 0.074 0.025 0.141 0.058 0.198 0.099s0.108 0.099 0.141 0.157c0.033 0.066 0.058 0.141 0.058 0.223 0 0.116-0.025 0.232-0.083 0.364-0.058 0.124-0.124 0.256-0.215 0.389-0.083 0.132-0.182 0.256-0.281 0.38s-0.19 0.232-0.281 0.331c-0.091 0.099-0.157 0.182-0.215 0.256-0.058 0.066-0.091 0.116-0.091 0.141 0 0.033 0.008 0.058 0.033 0.083 0.025 0.017 0.058 0.033 0.108 0.033 0.041 0 0.099-0.025 0.174-0.066s0.182-0.124 0.322-0.232 0.314-0.256 0.521-0.438c0.149-0.124 0.314-0.273 0.504-0.447l0.918-8.509c-0.149 0.083-0.306 0.132-0.397 0.165-0.347 0.083-0.885 0.198-1.563 0.289zM16 7.111c-3.969 0-7.194 0.447-7.194 0.992s3.225 0.992 7.194 0.992 7.194-0.447 7.194-0.992c0-0.546-3.225-0.992-7.194-0.992zM18.869 8.393c0 0.132-0.38 0.232-0.852 0.232s-0.852-0.107-0.852-0.232c0-0.132 0.38-0.232 0.852-0.232s0.852 0.099 0.852 0.232z"></path>
<path fill="#737373" d="M17.331 8.294c-0.008 0.008-0.008 0.017-0.008 0.025 0 0.083 0.306 0.149 0.686 0.149s0.686-0.066 0.686-0.149l0.901-3.646 3.572-3.771c0 0 0 0 0 0 0.074-0.083-0.074-0.347-0.331-0.579-0.256-0.223-0.529-0.306-0.612-0.215 0 0 0 0 0 0l-3.812 4.010-1.083 4.176z"></path>
</svg>
