<!-- Generated by IcoMoon.io -->
<svg version="1.1" xmlns="http://www.w3.org/2000/svg" width="32" height="32" viewBox="0 0 32 32">
<title>Gulpjs_Logo</title>
<path fill="#da4648" d="M15.935 25.198c-1.867 0-3.309-0.28-4.002-0.448-0.474-0.114-0.855-0.233-1.144-0.354l0.925 1.58 0.362 4.938c0 0.554 1.759 1.002 3.928 1.002s3.928-0.449 3.928-1.002l0.287-4.992 0.875-1.531c-0.291 0.123-0.675 0.243-1.155 0.359-0.694 0.167-2.136 0.448-4.002 0.448zM21.123 9.13c-1.37 0.191-3.188 0.297-5.12 0.297s-3.75-0.105-5.12-0.297c-0.679-0.095-1.216-0.207-1.596-0.332-0.091-0.030-0.244-0.081-0.392-0.163l0.849 7.812c0.039-0.135 0.083-0.269 0.132-0.403 0.1-0.274 0.215-0.543 0.346-0.805s0.273-0.51 0.427-0.743c0.154-0.233 0.318-0.448 0.492-0.644s0.352-0.365 0.535-0.506c0.183-0.141 0.368-0.252 0.554-0.331s0.371-0.119 0.554-0.119c0.211 0 0.415 0.058 0.612 0.173s0.381 0.302 0.552 0.56c0.039 0.058 0.064 0.116 0.075 0.175s0.016 0.115 0.016 0.167c0 0.123-0.030 0.221-0.089 0.292s-0.129 0.107-0.21 0.107c-0.074 0-0.143-0.039-0.207-0.117s-0.135-0.19-0.214-0.335c-0.074-0.132-0.156-0.227-0.245-0.286s-0.186-0.088-0.29-0.088c-0.162 0-0.335 0.067-0.519 0.202s-0.367 0.312-0.547 0.533c-0.181 0.221-0.354 0.473-0.52 0.757s-0.312 0.575-0.44 0.872c-0.127 0.298-0.229 0.591-0.304 0.881s-0.113 0.549-0.113 0.78c0 0.077 0.005 0.156 0.016 0.237s0.030 0.154 0.059 0.22c0.029 0.066 0.068 0.12 0.118 0.162s0.113 0.064 0.189 0.064c0.086 0 0.183-0.029 0.292-0.086s0.222-0.133 0.339-0.226c0.117-0.093 0.235-0.199 0.353-0.317s0.228-0.237 0.33-0.358c0.102-0.121 0.192-0.237 0.271-0.348s0.138-0.208 0.177-0.29l0.323-0.967c0.039-0.104 0.091-0.178 0.155-0.222s0.129-0.066 0.196-0.066c0.032 0 0.065 0.006 0.097 0.016s0.061 0.028 0.087 0.051c0.025 0.023 0.046 0.053 0.061 0.091s0.023 0.080 0.023 0.13c0 0.132-0.012 0.255-0.035 0.37s-0.053 0.228-0.089 0.338c-0.036 0.11-0.076 0.22-0.12 0.331s-0.087 0.227-0.129 0.348c-0.009 0.014-0.026 0.057-0.050 0.13s-0.054 0.164-0.089 0.274c-0.035 0.11-0.072 0.233-0.113 0.368s-0.082 0.274-0.125 0.416c-0.043 0.141-0.084 0.28-0.123 0.416s-0.075 0.259-0.106 0.368c-0.031 0.11-0.057 0.201-0.078 0.276s-0.034 0.118-0.038 0.132c-0.012 0.044-0.030 0.093-0.056 0.146s-0.056 0.104-0.090 0.152c-0.035 0.048-0.073 0.088-0.115 0.119s-0.085 0.047-0.129 0.047c-0.074 0-0.128-0.025-0.162-0.074s-0.050-0.14-0.050-0.272v-0.058c0-0.019 0.001-0.040 0.003-0.062 0.002-0.044 0.020-0.126 0.052-0.247s0.071-0.257 0.116-0.409c0.045-0.152 0.094-0.31 0.146-0.473s0.099-0.309 0.141-0.438c-0.123 0.137-0.256 0.274-0.4 0.41s-0.291 0.258-0.441 0.366c-0.151 0.108-0.302 0.197-0.455 0.265s-0.3 0.103-0.441 0.103c-0.162 0-0.302-0.036-0.419-0.107-0.021-0.013-0.041-0.027-0.061-0.042l0.472 4.952c0.123 0.308 2.438 1.065 5.49 1.065 3.053 0 5.369-0.758 5.49-1.066l0.678-5.887c-0.056 0.052-0.111 0.102-0.163 0.151-0.195 0.181-0.378 0.337-0.551 0.467s-0.341 0.231-0.506 0.302c-0.165 0.071-0.341 0.107-0.528 0.107-0.176 0-0.312-0.038-0.408-0.115s-0.144-0.182-0.144-0.317v-0.031c0-0.010 0.001-0.021 0.004-0.035 0.009-0.082 0.045-0.177 0.108-0.284s0.138-0.218 0.226-0.333c0.088-0.115 0.182-0.232 0.281-0.35s0.192-0.23 0.276-0.335c0.084-0.105 0.155-0.202 0.21-0.29s0.084-0.159 0.084-0.214c0-0.033-0.012-0.059-0.035-0.078s-0.062-0.029-0.115-0.029c-0.093 0-0.188 0.024-0.287 0.072s-0.196 0.113-0.292 0.194c-0.096 0.081-0.19 0.174-0.281 0.278s-0.177 0.213-0.257 0.325c-0.080 0.113-0.153 0.226-0.219 0.34s-0.122 0.219-0.169 0.315c-0.014 0.030-0.034 0.073-0.059 0.128s-0.053 0.117-0.083 0.185c-0.030 0.069-0.062 0.139-0.096 0.212s-0.064 0.141-0.092 0.206c-0.028 0.064-0.053 0.122-0.075 0.173s-0.038 0.086-0.047 0.105c-0.012 0.025-0.031 0.071-0.057 0.14s-0.057 0.149-0.092 0.241c-0.035 0.092-0.071 0.189-0.11 0.29s-0.074 0.198-0.108 0.288c-0.034 0.090-0.063 0.17-0.089 0.239s-0.042 0.115-0.049 0.14-0.050 0.138-0.082 0.202c-0.031 0.063-0.067 0.119-0.108 0.167s-0.087 0.086-0.139 0.115c-0.052 0.029-0.111 0.043-0.175 0.043-0.084 0-0.152-0.020-0.207-0.060s-0.082-0.116-0.082-0.228c0-0.055 0.007-0.111 0.021-0.169s0.031-0.115 0.052-0.171c0.021-0.056 0.042-0.111 0.064-0.165s0.042-0.105 0.061-0.154c0.125-0.274 0.253-0.549 0.382-0.825s0.254-0.549 0.374-0.819c0.025-0.056 0.048-0.112 0.072-0.168-0.007 0.007-0.014 0.015-0.021 0.021-0.151 0.146-0.301 0.274-0.45 0.385s-0.298 0.2-0.445 0.265c-0.147 0.066-0.29 0.099-0.429 0.099-0.095 0-0.174-0.015-0.238-0.045s-0.115-0.071-0.153-0.123c-0.038-0.052-0.066-0.114-0.082-0.185-0.005-0.024-0.009-0.050-0.012-0.075-0.041 0.032-0.082 0.063-0.123 0.092-0.144 0.101-0.285 0.183-0.424 0.245s-0.264 0.093-0.375 0.093c-0.111 0-0.202-0.037-0.271-0.111s-0.104-0.2-0.104-0.379c0-0.126 0.019-0.273 0.055-0.44-0.060 0.107-0.135 0.215-0.226 0.325s-0.194 0.21-0.309 0.301c-0.116 0.090-0.246 0.164-0.389 0.22s-0.3 0.084-0.469 0.084c-0.076 0-0.15-0.010-0.221-0.029s-0.133-0.052-0.186-0.099c-0.053-0.047-0.096-0.109-0.129-0.187s-0.049-0.176-0.049-0.294c0-0.003 0.005-0.045 0.014-0.126s0.039-0.209 0.089-0.383c0.050-0.174 0.127-0.4 0.231-0.677s0.251-0.613 0.441-1.008c0.049-0.104 0.105-0.179 0.168-0.224s0.133-0.068 0.207-0.068c0.033 0 0.066 0.005 0.101 0.014s0.067 0.025 0.097 0.045c0.030 0.021 0.054 0.047 0.073 0.078s0.028 0.068 0.028 0.109c0 0.027-0.004 0.054-0.011 0.078-0.012 0.047-0.037 0.108-0.075 0.183s-0.083 0.162-0.134 0.259c-0.051 0.097-0.105 0.202-0.162 0.315s-0.109 0.229-0.158 0.35-0.090 0.244-0.125 0.368c-0.035 0.125-0.055 0.246-0.059 0.364 0 0.049 0.011 0.095 0.035 0.136s0.061 0.062 0.115 0.062c0.15 0 0.294-0.049 0.431-0.148s0.263-0.222 0.379-0.368c0.116-0.147 0.221-0.305 0.314-0.473s0.172-0.323 0.235-0.463c0.044-0.093 0.083-0.194 0.116-0.3s0.070-0.206 0.109-0.296c0.039-0.091 0.084-0.166 0.136-0.226s0.115-0.091 0.191-0.091c0.084 0 0.149 0.032 0.198 0.095s0.073 0.139 0.073 0.226c0 0.049-0.016 0.117-0.047 0.204s-0.071 0.185-0.118 0.296c-0.048 0.111-0.099 0.23-0.155 0.356s-0.107 0.255-0.155 0.385c-0.048 0.13-0.087 0.258-0.118 0.383s-0.047 0.241-0.047 0.348c0 0.099 0.051 0.148 0.153 0.148 0.072 0 0.161-0.025 0.268-0.074s0.218-0.119 0.335-0.208c0.029-0.022 0.059-0.045 0.088-0.070 0.033-0.135 0.071-0.259 0.116-0.372 0.081-0.214 0.163-0.427 0.247-0.638s0.16-0.405 0.229-0.58l1.053-2.655c0.042-0.107 0.098-0.182 0.168-0.226s0.142-0.066 0.214-0.066c0.072 0 0.137 0.023 0.196 0.070s0.089 0.122 0.089 0.226c0 0.049-0.010 0.102-0.030 0.156s-0.045 0.114-0.075 0.177c-0.058 0.129-0.127 0.287-0.207 0.473s-0.166 0.39-0.257 0.609c-0.092 0.22-0.185 0.448-0.281 0.685s-0.19 0.468-0.281 0.694c-0.091 0.225-0.177 0.438-0.257 0.64s-0.149 0.377-0.207 0.525c-0.025 0.063-0.050 0.137-0.075 0.22s-0.036 0.158-0.036 0.224c0 0.041 0.007 0.074 0.021 0.099s0.041 0.037 0.080 0.037c0.049 0 0.109-0.017 0.182-0.052s0.152-0.080 0.236-0.136c0.085-0.056 0.173-0.121 0.264-0.193s0.183-0.148 0.273-0.226c0.090-0.078 0.177-0.156 0.259-0.235s0.156-0.15 0.221-0.216c0.015-0.016 0.033-0.027 0.053-0.035 0.039-0.117 0.075-0.231 0.106-0.343 0.019-0.049 0.044-0.119 0.076-0.21s0.069-0.18 0.111-0.268c0.042-0.088 0.089-0.164 0.141-0.228s0.108-0.097 0.169-0.097c0.093 0 0.16 0.021 0.202 0.064s0.063 0.105 0.063 0.187c0 0.016-0.002 0.043-0.007 0.078s-0.010 0.073-0.017 0.113c-0.007 0.040-0.015 0.077-0.023 0.113s-0.016 0.062-0.023 0.078c0.086-0.093 0.178-0.186 0.278-0.278s0.203-0.175 0.309-0.249c0.107-0.074 0.215-0.134 0.327-0.181s0.222-0.070 0.333-0.070c0.076 0 0.152 0.011 0.228 0.033s0.143 0.054 0.201 0.097c0.059 0.043 0.107 0.096 0.144 0.161s0.056 0.139 0.056 0.224c0 0.113-0.028 0.233-0.085 0.36s-0.128 0.256-0.214 0.385c-0.086 0.129-0.178 0.255-0.278 0.377s-0.193 0.233-0.28 0.333c-0.087 0.1-0.16 0.185-0.219 0.255s-0.090 0.117-0.092 0.142c0 0.033 0.011 0.060 0.031 0.080s0.056 0.031 0.104 0.031c0.039 0 0.097-0.022 0.174-0.066s0.184-0.12 0.321-0.228 0.313-0.254 0.525-0.436c0.145-0.125 0.316-0.274 0.507-0.444l0.919-8.511c-0.148 0.082-0.302 0.133-0.393 0.163-0.38 0.126-0.917 0.237-1.596 0.332zM15.998 7.11c-3.973 0-7.194 0.444-7.194 0.992s3.221 0.992 7.194 0.992c3.973 0 7.194-0.444 7.194-0.992s-3.221-0.992-7.194-0.992zM18.87 8.393c0 0.129-0.383 0.233-0.855 0.233s-0.855-0.104-0.855-0.233c0-0.129 0.383-0.233 0.855-0.233s0.855 0.104 0.855 0.233z"></path>
<path fill="#da4648" d="M17.333 8.29c-0.004 0.007-0.006 0.014-0.006 0.021 0 0.083 0.308 0.151 0.688 0.151s0.688-0.067 0.688-0.151l0.899-3.645 3.575-3.774c0.001-0.001 0.002-0.002 0.003-0.004 0.076-0.086-0.078-0.35-0.333-0.578s-0.53-0.304-0.615-0.218c-0.001 0.001-0.001 0.001-0.002 0.002l-3.814 4.013-1.083 4.181z"></path>
</svg>
