<!-- Generated by IcoMoon.io -->
<svg version="1.1" xmlns="http://www.w3.org/2000/svg" width="32" height="32" viewBox="0 0 32 32">
<title>html-5</title>
<path fill="#e44d26" d="M4.676 6.117l2.063 23.295 9.261 2.588 9.256-2.588 2.068-23.295z"></path>
<path fill="#f16529" d="M16 8.518v21.081l7.927-2.174 1.729-18.907z"></path>
<path fill="#ebebeb" d="M22.85 13.735h-10.854l0.258 2.927h10.338l-0.779 8.771-5.819 1.628-5.809-1.628-0.409-4.585h2.846l0.212 2.381 3.16 0.859 0.005-0.005 3.165-0.859 0.329-3.706h-9.833l-0.763-8.639h14.205z"></path>
<path fill="#fafafa" d="M16.025 10.879v0 2.856h6.85l0.253-2.856z"></path>
<path fill="#fafafa" d="M16.025 16.662v2.856h3.493l-0.329 3.706-3.165 0.859v2.978l5.814-1.623 0.779-8.776h-6.592z"></path>
<path fill="#000" d="M10.414 0.035v4.246h-1.395v-1.512h-1.153v1.512h-1.4v-4.246h1.4v1.512h1.153v-1.512h1.395z"></path>
<path fill="#000" d="M15.090 0.035v1.223h-1.143v3.023h-1.395v-3.023h-1.143v-1.223h3.68z"></path>
<path fill="#000" d="M20.954 0.035v4.246h-1.365v-1.941l-0.698 1.082h-0.733l-0.698-1.087v1.946h-1.365v-4.246h1.244l1.183 1.855 1.188-1.855h1.244z"></path>
<path fill="#000" d="M23.603 0.035v3.023h1.815v1.223h-3.215v-4.246h1.4z"></path>
</svg>
