<!-- Generated by IcoMoon.io -->
<svg version="1.1" xmlns="http://www.w3.org/2000/svg" width="32" height="32" viewBox="0 0 32 32">
<title>icon-css-3-grey</title>
<path fill="#000" d="M9.513 0.893c1.327-0.013 2.653-0.007 3.98-0.007 0 0.413 0.007 0.833-0.007 1.247-0.92-0.007-1.84 0-2.76 0.007-0.007 0.6-0.020 1.207-0.013 1.807 0.92 0.007 1.847 0.013 2.767 0.013 0.013 0.34 0.007 0.687 0 1.027-1.327-0.007-2.647-0.007-3.973-0.007 0.013-1.36 0.013-2.727 0.007-4.087z"></path>
<path fill="#000" d="M13.967 0.887c1.347 0 2.687-0.013 4.033 0.007-0.007 0.393 0 0.787 0 1.18-0.98 0-1.953 0-2.933 0.013 0 0.153 0 0.307 0 0.46 0.973 0.013 1.953 0.020 2.927 0.027 0.007 0.8 0 1.607 0.007 2.407-1.347 0-2.687 0-4.033 0.007-0.007-0.327-0.007-0.647 0-0.973 0.933 0 1.867 0.007 2.793-0.007 0.007-0.207 0.007-0.42 0.007-0.627-0.933 0-1.873 0-2.807 0 0-0.833 0-1.66 0.007-2.493z"></path>
<path fill="#000" d="M18.447 0.893c1.34 0 2.68 0 4.027 0 0.007 0.393 0.013 0.787 0 1.18-0.98 0-1.967 0.007-2.947 0.007 0 0.16 0.007 0.32 0.013 0.487 0.973-0.007 1.953 0.007 2.927 0.020 0.007 0.8 0.013 1.6 0.007 2.4-1.347-0.007-2.687-0.007-4.033 0-0.007-0.327-0.013-0.647 0-0.973 0.927 0.007 1.86 0.007 2.793 0 0-0.207 0.007-0.42 0.007-0.627-0.933 0.007-1.867 0.007-2.8 0 0-0.827 0.007-1.66 0.007-2.493z"></path>
<path fill="#575757" d="M5.193 6.673c7.2 0 14.4 0 21.6 0-0.393 4.48-0.787 8.953-1.2 13.433-0.247 2.86-0.5 5.72-0.767 8.58-1.533 0.407-3.060 0.873-4.593 1.28-1.413 0.413-2.833 0.787-4.247 1.2h-0.040c-1.34-0.4-2.7-0.753-4.040-1.153-1.587-0.427-3.153-0.907-4.74-1.327-0.207-2.14-0.393-4.287-0.58-6.433-0.347-3.96-0.727-7.92-1.060-11.887-0.113-1.193-0.2-2.387-0.34-3.58v-0.113zM16.027 8.44c-0.013 0.86 0.013 1.72-0.013 2.58-2.473-0.007-4.94 0-7.413 0 0.040 0.833 0.153 1.667 0.267 2.493 2.3 0.087 4.6 0 6.9 0.067-2.013 0.9-4.047 1.753-6.067 2.633-0.173 0.080-0.36 0.133-0.513 0.247 0.020 0.92 0.167 1.827 0.233 2.747 1.227-0.007 2.447-0.027 3.673-0.027 0.98-0.007 1.967 0.013 2.947-0.007-0.047 1.507 0.013 3.020-0.033 4.527-0.66-0.1-1.313-0.247-1.973-0.36-0.52-0.113-1.053-0.173-1.56-0.32-0.073-0.727-0.12-1.447-0.187-2.173-0.147-0.047-0.307-0.040-0.46-0.047-0.74 0.007-1.487 0-2.227 0.007 0.073 1.393 0.2 2.78 0.413 4.16 0.733 0.193 1.467 0.38 2.193 0.58 1.12 0.307 2.253 0.56 3.373 0.86 0.133 0.027 0.267 0.080 0.407 0.067 0.073 0.913 0.020 1.84 0.033 2.753 0.26-0.040 0.513-0.107 0.76-0.18 2.12-0.573 4.24-1.167 6.367-1.747 0.107-0.833 0.153-1.673 0.24-2.513 0.22-2.54 0.44-5.087 0.673-7.627 0.273-2.907 0.507-5.82 0.78-8.727-2.94 0.007-5.88 0-8.813 0.007z"></path>
<path fill="#898989" d="M16.027 8.44c2.933-0.007 5.873 0 8.813-0.007-0.273 2.907-0.507 5.82-0.78 8.727-0.233 2.54-0.453 5.087-0.673 7.627-0.087 0.833-0.133 1.673-0.24 2.513-2.12 0.58-4.24 1.167-6.367 1.747-0.247 0.080-0.507 0.14-0.76 0.18-0.013-0.92 0.047-1.84-0.033-2.753 0.020-0.007 0.060-0.013 0.073-0.013 1.973-0.493 3.933-1.040 5.907-1.553 0.247-2.793 0.527-5.587 0.7-8.387-1.673 0.007-3.353 0.007-5.027 0.013-0.247 0-0.487 0-0.733-0.020 0.9-0.467 1.847-0.833 2.773-1.247 0.887-0.4 1.787-0.78 2.68-1.173 0.173-0.080 0.353-0.147 0.507-0.26 0.060-0.22 0.053-0.447 0.080-0.667 0.053-0.707 0.14-1.413 0.173-2.12-2.373-0.020-4.747 0-7.12-0.013 0.040-0.867 0.013-1.733 0.027-2.593z"></path>
<path fill="#898989" d="M16.040 19.173c1.147-0.020 2.293 0.013 3.44 0.007-0.067 1.173-0.16 2.34-0.22 3.513-0.7 0.227-1.413 0.427-2.12 0.633-0.38 0.113-0.767 0.207-1.127 0.373 0.040-1.507-0.020-3.013 0.027-4.527z"></path>
<path fill="#cfcfcf" d="M8.6 11.027c2.473 0 4.94-0.007 7.413 0 0.033 2.72-0.007 5.433 0.027 8.153-0.98 0.020-1.967 0-2.947 0.007-1.227 0-2.447 0.020-3.673 0.027-0.067-0.913-0.213-1.827-0.233-2.747 0.153-0.113 0.34-0.173 0.513-0.247 2.020-0.88 4.053-1.733 6.067-2.633-2.3-0.067-4.6 0.020-6.9-0.067-0.113-0.833-0.227-1.66-0.267-2.493z"></path>
<path fill="#cfcfcf" d="M9.6 20.807c0.74-0.013 1.487-0.007 2.227-0.007 0.153 0 0.307 0 0.46 0.047 0.067 0.727 0.113 1.453 0.187 2.173 0.513 0.147 1.040 0.207 1.56 0.32 0.66 0.12 1.313 0.267 1.973 0.36 0.060 0.92-0.047 1.84 0.060 2.753-0.020 0.007-0.060 0.013-0.073 0.013-0.14 0.013-0.273-0.040-0.407-0.067-1.12-0.3-2.253-0.553-3.373-0.86-0.733-0.2-1.467-0.387-2.193-0.58-0.22-1.367-0.347-2.76-0.42-4.153z"></path>
<path fill="#fff" d="M16.013 11.027c2.373 0.013 4.747-0.007 7.12 0.013-0.033 0.707-0.127 1.413-0.173 2.12-0.027 0.22-0.020 0.453-0.080 0.667-0.153 0.12-0.333 0.18-0.507 0.26-0.893 0.393-1.787 0.773-2.68 1.173-0.927 0.413-1.873 0.78-2.773 1.247 0.24 0.020 0.487 0.020 0.733 0.020 1.673-0.007 3.353 0 5.027-0.013-0.173 2.8-0.453 5.593-0.7 8.387-1.967 0.513-3.933 1.060-5.907 1.553-0.107-0.913 0.007-1.84-0.060-2.753 0.36-0.167 0.747-0.26 1.127-0.373 0.707-0.213 1.42-0.407 2.12-0.633 0.060-1.173 0.16-2.34 0.22-3.513-1.147 0.007-2.293-0.027-3.44-0.007-0.040-2.713 0-5.433-0.027-8.147z"></path>
</svg>
