<!-- Generated by IcoMoon.io -->
<svg version="1.1" xmlns="http://www.w3.org/2000/svg" width="28" height="32" viewBox="0 0 28 32">
<title>javascript-grey</title>
<path fill="#a3a3a3" d="M2.611 28.763l-2.612-28.762 28.147 0.012-2.591 28.728-11.505 3.25-11.439-3.228zM23.437 27.194l2.185-24.634h-11.526l0.087 27.169 9.254-2.536zM13.019 6.171h-2.799l-0.033 14.743-5.434-1.482 0.012 3.37 8.255 2.228v-18.86z"></path>
<path fill="#ebebeb" opacity="0.9086975857089996" d="M4.763 22.802l-0.012-3.37c0 0 3.469 0.977 5.434 1.482l0.033-14.732h2.799v18.849l-8.255-2.23z"></path>
<path fill="#c6c6c6" d="M14.094 2.549h11.526l-2.184 24.634-9.341 2.536v-27.169zM22.844 23.054l0.758-9.211-5.599 0.626v-4.916l5.972-0.022 0.242-3.359-9.012 0.044 0.12 12.229 5.445-0.933-0.077 2.723-5.489 1.46 0.055 3.337 7.584-1.978z"></path>
</svg>
