<!-- Generated by IcoMoon.io -->
<svg version="1.1" xmlns="http://www.w3.org/2000/svg" width="28" height="32" viewBox="0 0 28 32">
<title>javascript-1</title>
<path fill="#d4b830" d="M2.612 28.763l-2.613-28.762 28.147 0.011-2.591 28.729-11.505 3.249-11.439-3.227zM23.436 27.193l2.185-24.634h-11.527l0.088 27.17 9.254-2.536zM13.018 6.171h-2.799l-0.033 14.743-5.434-1.482 0.011 3.37 8.255 2.228v-18.86z"></path>
<path fill="#ebebeb" opacity="0.9086975857089996" d="M4.763 22.802l-0.011-3.37s3.469 0.977 5.434 1.482l0.033-14.732h2.799v18.849l-8.255-2.228z"></path>
<path fill="#fdd83c" d="M14.094 2.548h11.527l-2.185 24.634-9.342 2.536v-27.17zM22.843 23.055l0.757-9.21-5.599 0.626v-4.918l5.972-0.022 0.241-3.359-9.013 0.044 0.121 12.229 5.445-0.933-0.077 2.722-5.489 1.46 0.055 3.337 7.586-1.976z"></path>
</svg>
