<?xml version="1.0" encoding="utf-8"?>
<!-- Generator: Adobe Illustrator 22.1.0, SVG Export Plug-In . SVG Version: 6.00 Build 0)  -->
<svg version="1.1" id="Layer_1" xmlns="http://www.w3.org/2000/svg" xmlns:xlink="http://www.w3.org/1999/xlink" x="0px" y="0px"
	 viewBox="0 0 32 32" style="enable-background:new 0 0 32 32;" xml:space="preserve">
<style type="text/css">
	.st0{fill:#FFFFFF;}
	.st1{fill:#2F436D;}
</style>
<title>LESS_Logo-grey</title>
<path class="st0" d="M30.3,20.3c0,1.5-1.2,2.7-2.7,2.7H4.7c-1.5,0-2.7-1.2-2.7-2.7v-8.7c0-1.5,1.2-2.7,2.7-2.7h22.9
	c1.5,0,2.7,1.2,2.7,2.7L30.3,20.3L30.3,20.3z"/>
<path class="st1" d="M25.5,15.8c1.2,0.4,1.8,1.1,1.8,2.1c0,0.7-0.2,1.2-0.7,1.6c-0.5,0.4-1.2,0.6-2.1,0.6s-1.8-0.3-2.5-0.7
	c0-0.2,0.1-0.5,0.2-0.8s0.2-0.5,0.4-0.7c0.7,0.4,1.3,0.6,1.9,0.6c0.2,0,0.4,0,0.6-0.1c0.1-0.1,0.2-0.2,0.2-0.3
	c0-0.3-0.2-0.5-0.6-0.6l-0.7-0.3c-1.1-0.4-1.7-1.1-1.7-2c0-0.7,0.2-1.2,0.7-1.6s1.1-0.7,1.9-0.7c0.4,0,0.8,0.1,1.3,0.2
	s0.9,0.4,1.2,0.5c0,0.2,0,0.5-0.1,0.8s-0.3,0.5-0.4,0.6c-0.8-0.3-1.4-0.5-1.9-0.5c-0.2,0-0.3,0-0.4,0.1c-0.1,0.1-0.1,0.2-0.1,0.3
	c0,0.2,0.2,0.4,0.5,0.5L25.5,15.8L25.5,15.8z"/>
<path class="st1" d="M19.5,15.8c1.2,0.4,1.8,1.1,1.8,2.1c0,0.7-0.2,1.2-0.7,1.6c-0.5,0.4-1.2,0.6-2.1,0.6c-0.9,0-1.8-0.3-2.5-0.7
	c0-0.2,0.1-0.5,0.2-0.8c0.1-0.3,0.2-0.5,0.4-0.7c0.7,0.4,1.3,0.6,1.9,0.6c0.2,0,0.4,0,0.6-0.1s0.2-0.2,0.2-0.3
	c0-0.3-0.2-0.5-0.6-0.6l-0.7-0.3c-1.1-0.4-1.7-1.1-1.7-2c0-0.7,0.2-1.2,0.7-1.6s1.1-0.7,1.9-0.7c0.4,0,0.8,0.1,1.3,0.2
	s0.9,0.4,1.2,0.5c0,0.2,0,0.5-0.1,0.8s-0.3,0.5-0.4,0.6c-0.8-0.3-1.4-0.5-1.9-0.5c-0.2,0-0.3,0-0.4,0.1s-0.1,0.2-0.1,0.3
	c0,0.2,0.2,0.4,0.5,0.5L19.5,15.8L19.5,15.8z"/>
<path class="st1" d="M15.2,15.9c0-0.4-0.1-0.8-0.2-1.1s-0.3-0.6-0.6-0.9s-0.5-0.4-0.9-0.6c-0.3-0.1-0.7-0.4-1.2-0.4
	c-0.5,0-1,0.2-1.3,0.4s-0.7,0.4-0.9,0.7c-0.2,0.3-0.4,0.7-0.6,1.1s-0.2,0.9-0.2,1.4c0,0.5,0.1,1,0.1,1.4s0.3,0.8,0.5,1.1
	c0.2,0.3,0.5,0.6,0.9,0.7c0.4,0.2,0.9,0.3,1.4,0.3c1,0,1.9-0.3,2.6-0.8c-0.1-0.5-0.3-0.9-0.5-1.2c-0.4,0.1-0.7,0.2-1,0.3
	c-0.3,0.1-0.5,0.1-0.7,0.1c-0.4,0-0.7-0.1-0.9-0.3s-0.3-0.5-0.3-0.9H15C15.1,17,15.2,16.5,15.2,15.9L15.2,15.9z M11.5,16
	c0-0.5,0.1-0.9,0.2-1.1c0.1-0.2,0.4-0.3,0.6-0.3c0.3,0,0.5,0.1,0.7,0.3s0.2,0.6,0.2,1V16L11.5,16L11.5,16L11.5,16z"/>
<path class="st1" d="M31,16.9c-0.4,0.3-0.6,0.8-0.6,1.4v2.3c0,0.8-0.2,1.4-0.8,1.8c-0.5,0.4-1.2,0.6-1.9,0.6l-0.4,0v-1.2
	c0.4-0.1,0.5-0.2,0.7-0.4c0.3-0.2,0.5-0.6,0.5-1.2v-1.9c0-0.6,0.1-1.1,0.3-1.5s0.7-0.7,1.4-1c-0.7-0.3-1.2-0.8-1.5-1.3
	c-0.1-0.3-0.2-0.8-0.2-1.3v-1.7c0-0.6-0.2-1-0.4-1.2c-0.1-0.1-0.3-0.3-0.7-0.4V8.9c0.5,0,0.8,0,1.1,0c0.5,0,0.8,0.2,1.2,0.5
	c0.4,0.3,0.6,0.7,0.8,1.1c0.1,0.3,0.1,0.5,0.1,0.8v2c0,0.7,0.2,1.2,0.6,1.6c0.2,0.2,0.5,0.4,1,0.5v0.9C31.5,16.5,31.2,16.7,31,16.9
	L31,16.9L31,16.9z"/>
<path class="st1" d="M4.2,8.9L4.2,8.9c-0.1,0-0.3,0-0.4,0C3.3,8.9,3,9.2,2.6,9.4C2.3,9.7,2,10.1,1.9,10.6c-0.1,0.3,0,0.5,0,0.8v2
	c0,0.7-0.3,1.2-0.6,1.6c-0.2,0.2-0.6,0.4-1.1,0.5v0.9c0.4,0.1,0.8,0.3,1.1,0.5c0.4,0.3,0.7,0.8,0.7,1.4v2.3c0,0.8,0.2,1.4,0.7,1.8
	c0.5,0.4,1.2,0.6,1.9,0.6l0.5,0v-1.2c-0.4-0.1-0.6-0.2-0.7-0.4c-0.3-0.2-0.4-0.6-0.4-1.2v-1.9c0-0.6-0.1-1.1-0.3-1.5S2.7,16.3,2,16
	c0.7-0.3,1.2-0.8,1.5-1.3c0.2-0.3,0.2-0.8,0.2-1.3v-1.7c0-0.6,0.1-1,0.4-1.2c0.1-0.1,0.3-0.2,0.7-0.3l0.5,0c0-0.4,0-0.7,0-1.1
	L4.2,8.9L4.2,8.9z"/>
<path class="st1" d="M8.7,18.4H8.3c-0.4,0-0.5-0.2-0.5-0.6v-7.7c0-0.5-0.1-0.8-0.3-1S7,8.9,6.6,8.9H5.7l-0.1,0v9.2
	c0,0.6,0.1,1.1,0.4,1.4S6.7,20,7.3,20c0.4,0,0.9,0,1.4-0.1c0-0.1,0-0.3,0-0.6S8.8,18.7,8.7,18.4L8.7,18.4L8.7,18.4z"/>
</svg>
