<?xml version="1.0" encoding="utf-8"?>
<!-- Generator: Adobe Illustrator 22.1.0, SVG Export Plug-In . SVG Version: 6.00 Build 0)  -->
<svg version="1.1" id="Layer_1" xmlns="http://www.w3.org/2000/svg" xmlns:xlink="http://www.w3.org/1999/xlink" x="0px" y="0px"
	 viewBox="0 0 24 24" style="enable-background:new 0 0 24 24;" xml:space="preserve">
<title>phone</title>
<path d="M23,16.9c0-0.7-0.2-1.4-0.7-1.9c-0.5-0.6-1.1-1-1.9-1.1s-1.7-0.3-2.6-0.6c-0.4-0.2-0.9-0.2-1.3-0.2
	c-0.7,0.1-1.3,0.3-1.8,0.9L14,14.7c-1.8-1.1-3.4-2.7-4.6-4.6l0.7-0.7c0.3-0.3,0.6-0.7,0.7-1.2c0.2-0.6,0.2-1.3,0-2
	c-0.3-0.8-0.5-1.6-0.6-2.6c-0.1-0.7-0.5-1.3-1-1.8C8.6,1.3,7.9,1,7.1,1h-3C4,1,3.9,1,3.8,1C3,1.1,2.3,1.5,1.8,2.1S1,3.4,1.1,4.3
	c0.3,3.1,1.4,6.2,3.2,9.1c1.5,2.4,3.6,4.6,6.3,6.3c2.6,1.7,5.7,2.9,9.1,3.2c0.1,0,0.2,0,0.3,0c0.8,0,1.6-0.3,2.1-0.9
	s0.9-1.3,0.9-2.1V16.9z M21,16.9v3c0,0.3-0.1,0.5-0.3,0.7s-0.4,0.3-0.7,0.3h-0.1c-3.1-0.3-5.9-1.4-8.2-2.9c-2.4-1.5-4.4-3.5-5.7-5.7
	C4.3,9.7,3.4,6.8,3.1,4.1c0-0.3,0.1-0.5,0.2-0.7S3.7,3,4,3h3.1c0.3,0,0.5,0.1,0.7,0.3C8,3.4,8.1,3.6,8.1,3.9C8.2,5,8.5,6,8.9,6.9
	C9,7.1,9,7.3,8.9,7.5c0,0.1-0.1,0.3-0.2,0.4L7.4,9.2C7.1,9.5,7,10,7.2,10.4c1.6,2.8,3.8,5,6.4,6.4c0.4,0.2,0.9,0.1,1.2-0.2l1.3-1.3
	c0.2-0.2,0.4-0.3,0.6-0.3s0.3,0,0.5,0.1c1,0.4,2.1,0.6,3,0.8c0.2,0,0.5,0.2,0.6,0.4C20.9,16.4,21,16.6,21,16.9L21,16.9z"/>
</svg>
