<!-- Generated by IcoMoon.io -->
<svg version="1.1" xmlns="http://www.w3.org/2000/svg" width="32" height="32" viewBox="0 0 32 32">
<title>Scss_Logo_Color</title>
<path fill="#cd6799" d="M22.136 5.962c-0.779-3.103-5.93-4.127-10.804-2.395-2.897 1.030-6.039 2.653-8.299 4.765-2.685 2.511-3.11 4.694-2.936 5.608 0.625 3.245 5.099 5.357 6.889 6.922-0.090 0.052-0.174 0.097-0.245 0.135-0.895 0.444-4.307 2.228-5.157 4.114-0.966 2.138 0.155 3.67 0.895 3.876 2.299 0.637 4.662-0.509 5.93-2.402s1.114-4.352 0.528-5.479c-0.006-0.013-0.013-0.026-0.026-0.039 0.232-0.135 0.47-0.277 0.702-0.412 0.457-0.27 0.908-0.522 1.294-0.728-0.219 0.599-0.38 1.313-0.457 2.344-0.097 1.21 0.399 2.782 1.050 3.4 0.29 0.27 0.631 0.277 0.85 0.277 0.76 0 1.101-0.631 1.481-1.378 0.187-0.367 0.367-0.76 0.515-1.101h-1.043c-0.148 0.238-0.547 0.373-0.67 0.341-0.386-0.103-0.625-1.777-0.077-3.432 0.277-0.831 0.863-1.822 1.204-2.208 0.554-0.618 1.165-0.824 1.313-0.573 0.026 0.045 0.032 0.399 0.071 0.412 0.013 0.077 0.708-0.258 0.908-0.65 0.103-0.644-0.097-1.256-1.185-1.256-1.017 0-2.421 1.114-3.116 2.118-0.438 0.238-1.371 0.747-2.369 1.294-0.38 0.212-0.773 0.425-1.14 0.625-0.026-0.026-0.052-0.058-0.077-0.084-1.97-2.105-5.614-3.593-5.46-6.419 0.058-1.030 0.412-3.734 6.999-7.018 5.421-2.672 9.735-1.932 10.482-0.29 1.069 2.344-2.311 6.696-7.913 7.327-2.138 0.238-3.258-0.586-3.541-0.895-0.296-0.322-0.341-0.341-0.451-0.277-0.18 0.097-0.064 0.386 0 0.554 0.167 0.438 0.856 1.21 2.022 1.59 1.030 0.335 3.535 0.522 6.567-0.65 3.393-1.307 6.046-4.958 5.267-8.016zM7.668 21.679c0.051-0.032 0.103-0.064 0.155-0.097 0.457 1.674 0.019 3.148-1.050 4.314-1.017 1.107-2.434 1.526-3.045 1.172-0.657-0.38-0.399-2.015 0.85-3.187 0.76-0.715 1.738-1.378 2.389-1.784 0.148-0.090 0.367-0.219 0.631-0.38 0.045-0.026 0.071-0.039 0.071-0.039z"></path>
<path fill="#cd6799" d="M27.081 18.601c-1.23 0.006-2.299 0.303-3.194 0.74-0.328-0.65-0.657-1.23-0.715-1.655-0.064-0.496-0.142-0.798-0.064-1.391s0.425-1.436 0.419-1.5c-0.006-0.064-0.077-0.367-0.785-0.373s-1.32 0.135-1.391 0.322c-0.071 0.187-0.206 0.612-0.296 1.050-0.122 0.644-1.416 2.942-2.157 4.146-0.238-0.47-0.444-0.882-0.489-1.21-0.064-0.496-0.142-0.798-0.064-1.391s0.425-1.436 0.419-1.5c-0.006-0.064-0.077-0.367-0.785-0.373s-1.32 0.135-1.391 0.322c-0.071 0.187-0.148 0.625-0.296 1.050s-1.867 4.262-2.318 5.254c-0.232 0.509-0.431 0.914-0.573 1.191 0 0-0.006 0.019-0.026 0.052-0.122 0.238-0.193 0.367-0.193 0.367s0 0 0 0.006c-0.077 0.142-0.161 0.27-0.212 0.316l-0.142 1.784c0.245-0.219 0.592-0.496 0.715-0.676 0 0.006 0 0.006 0 0.006s0.013-0.019 0.039-0.064c0.052-0.084 0.084-0.135 0.084-0.135s0-0.006 0-0.013c0.206-0.361 0.67-1.178 1.359-2.537 0.889-1.751 1.745-3.94 1.745-3.94s0.077 0.534 0.341 1.423c0.155 0.522 0.476 1.095 0.734 1.648-0.206 0.29-0.335 0.451-0.335 0.451s0 0 0.006 0.006c-0.167 0.219-0.348 0.457-0.547 0.689-0.702 0.837-1.539 1.796-1.655 2.073-0.135 0.328-0.103 0.567 0.155 0.76 0.187 0.142 0.522 0.161 0.863 0.142 0.631-0.045 1.075-0.2 1.294-0.296 0.341-0.122 0.74-0.309 1.114-0.586 0.689-0.509 1.107-1.236 1.069-2.196-0.019-0.528-0.193-1.056-0.406-1.552 0.064-0.090 0.122-0.18 0.187-0.27 1.088-1.59 1.932-3.335 1.932-3.335s0.077 0.534 0.341 1.423c0.129 0.451 0.393 0.94 0.625 1.416-1.024 0.831-1.655 1.796-1.88 2.427-0.406 1.172-0.090 1.7 0.509 1.822 0.27 0.058 0.657-0.071 0.94-0.193 0.361-0.116 0.785-0.316 1.191-0.612 0.689-0.509 1.352-1.217 1.313-2.176-0.019-0.438-0.135-0.869-0.296-1.288 0.869-0.361 1.99-0.56 3.419-0.393 3.065 0.361 3.67 2.273 3.554 3.078s-0.76 1.243-0.972 1.378-0.283 0.18-0.264 0.277c0.026 0.142 0.129 0.135 0.309 0.109 0.251-0.045 1.61-0.65 1.668-2.131 0.097-1.899-1.706-3.96-4.893-3.94zM18.331 22.542c0 0.985-0.953 1.648-1.378 1.919-0.148 0.077-0.29 0.129-0.354 0.090-0.045-0.026 0.064-0.129 0.064-0.129s0.766-0.824 1.069-1.198c0.174-0.219 0.38-0.476 0.599-0.766v0.084zM23.095 21.479c-0.006 1.243-0.895 1.706-1.429 1.899-0.109-0.077-0.090-0.335 0.277-1.14 0.142-0.316 0.476-0.843 1.050-1.352 0.064 0.206 0.109 0.406 0.103 0.592z"></path>
</svg>
