<!-- Generated by IcoMoon.io -->
<svg version="1.1" xmlns="http://www.w3.org/2000/svg" width="768" height="768" viewBox="0 0 768 768">
<title></title>
<g id="icomoon-ignore">
</g>
<path fill="#000" d="M283.68 160c24.032 0 46.080 6.464 66.208 19.488 10.368-2.56 22.752-3.872 37.024-3.872 59.072 0 109.376 21.44 150.944 64.256 41.568 42.848 62.336 94.784 62.336 155.84 0 14.912-1.632 30.496-4.864 46.752 8.448 18.848 12.672 37.984 12.672 57.408 0 35.104-12.16 65.152-36.544 90.080-24.352 24.992-53.376 37.536-87.2 37.536-20.128 0-39.584-5.184-58.4-15.616-16.864 2.592-29.856 3.904-38.944 3.904-59.104 0-109.6-21.44-151.456-64.288s-62.816-94.784-62.816-155.776c0-14.304 1.632-28.864 4.864-43.84-11.648-19.488-17.504-41.216-17.504-65.248 0-35.072 12.032-64.928 36.032-89.568 24-24.704 53.248-37.056 87.648-37.056zM384 496.96c-12.992 0-23.328-1.952-31.2-5.856-8.416-4.544-14.24-9.088-17.504-13.6-7.776-14.304-12.032-21.792-12.672-22.4-2.592-7.776-6.464-14.304-11.648-19.488-6.496-4.48-12.992-6.816-19.52-6.816-9.088 0-16.544 2.912-22.4 8.768-5.856 5.824-8.768 12.672-8.768 20.448 0 12.352 4.608 25.632 13.696 39.936 8.416 12.96 20.128 23.712 35.072 32.096 20.736 11.072 46.4 16.608 76.928 16.608 25.28 0 47.68-3.904 67.2-11.68 19.488-9.088 33.76-20.448 42.848-34.080 9.728-14.944 14.592-31.2 14.592-48.704 0-14.24-2.56-27.264-7.744-38.944-5.216-9.728-13.312-18.496-24.384-26.24-11.68-7.2-24-13.024-36.992-17.536-22.048-6.528-37.696-10.752-46.752-12.672-4.576-0.672-10.24-1.76-17.056-3.424-6.816-1.6-11.2-2.72-13.12-3.392-7.776-2.56-13.312-4.864-16.576-6.784-5.216-2.592-9.408-6.176-12.672-10.752-3.296-3.2-4.864-7.456-4.864-12.672 0-7.776 4.544-14.56 13.632-20.448 8.48-6.496 20.768-9.76 36.992-9.76 16.256 0 28.288 2.944 36.064 8.736 8.416 7.2 14.592 15.296 18.464 24.384 5.216 8.448 9.44 14.272 12.672 17.504 5.184 3.936 11.36 5.888 18.496 5.888 8.448 0 15.936-3.264 22.368-9.792 5.888-5.792 8.8-12.928 8.8-21.408 0-6.464-2.304-14.944-6.848-25.312-5.184-7.776-12.032-15.552-20.448-23.328-9.088-7.168-21.088-13.344-36.064-18.528-15.52-4.576-32.128-6.816-49.664-6.816-23.36 0-44.16 3.52-62.336 10.72-18.112 6.4-32.096 16.16-41.824 29.152-9.76 12.992-14.624 27.904-14.624 44.8 0 16.864 4.576 31.488 13.632 43.84 11.072 12.96 23.36 22.016 36.992 27.232 15.616 7.168 34.432 13.024 56.512 17.536 3.872 0.672 8.64 1.792 14.112 3.392 5.504 1.664 10.368 2.944 14.624 3.936 4.192 0.896 7.616 1.76 10.208 2.4 9.088 3.296 16.544 7.776 22.368 13.664 5.856 4.512 8.768 11.328 8.768 20.448 0 11.072-5.184 20.128-15.552 27.296-11.648 7.776-26.272 11.648-43.808 11.648zM283.68 96c-51.488 0-97.696 19.52-133.568 56.48-35.36 36.288-54.112 82.72-54.112 134.144 0 26.624 4.992 51.808 14.912 75.136-1.504 11.424-2.24 22.816-2.24 33.984 0 78.016 27.296 145.504 81.024 200.544 54.176 55.424 120.576 83.52 197.248 83.52 8.128 0 17.504-0.64 28.672-1.92 22.080 9.056 45.088 13.632 68.672 13.632 50.816 0 96.8-19.648 133.024-56.864 35.744-36.576 54.688-83.2 54.688-134.752 0-21.664-3.552-43.168-10.624-64.128 1.888-13.664 2.848-27.072 2.848-40.032 0-77.984-27.072-145.408-80.416-200.416-53.92-55.52-120.16-83.68-196.864-83.68-8.928 0-17.472 0.416-25.632 1.216-24.192-11.2-50.176-16.864-77.632-16.864z"></path>
</svg>
