<?xml version="1.0" encoding="utf-8"?>
<!-- Generator: Adobe Illustrator 22.1.0, SVG Export Plug-In . SVG Version: 6.00 Build 0)  -->
<svg version="1.1" id="Layer_1" xmlns="http://www.w3.org/2000/svg" xmlns:xlink="http://www.w3.org/1999/xlink" x="0px" y="0px"
	 viewBox="0 0 24 24" style="enable-background:new 0 0 24 24;" xml:space="preserve">
<style type="text/css">
	.st0{fill:#9E9E9E;}
</style>
<title>user</title>
<path class="st0" d="M21,21v-2c0-1.4-0.6-2.6-1.5-3.5S17.4,14,16,14H8c-1.4,0-2.6,0.6-3.5,1.5C3.6,16.4,3,17.6,3,19v2
	c0,0.6,0.4,1,1,1s1-0.4,1-1v-2c0-0.8,0.3-1.6,0.9-2.1S7.2,16,8,16h8c0.8,0,1.6,0.3,2.1,0.9S19,18.2,19,19v2c0,0.6,0.4,1,1,1
	S21,21.6,21,21z M17,7c0-1.4-0.6-2.6-1.5-3.5S13.4,2,12,2S9.4,2.6,8.5,3.5S7,5.6,7,7s0.6,2.6,1.5,3.5S10.6,12,12,12s2.6-0.6,3.5-1.5
	S17,8.4,17,7z M15,7c0,0.8-0.3,1.6-0.9,2.1S12.8,10,12,10s-1.6-0.3-2.1-0.9S9,7.8,9,7s0.3-1.6,0.9-2.1S11.2,4,12,4s1.6,0.3,2.1,0.9
	S15,6.2,15,7z"/>
</svg>
