<!-- Generated by IcoMoon.io -->
<svg version="1.1" xmlns="http://www.w3.org/2000/svg" width="32" height="32" viewBox="0 0 32 32">
<title>wordpress-grey</title>
<path fill="#939393" d="M9.599 9.878h-1.765l4.817 13.616 2.695-7.705-2.094-5.911h-1.866v-1.301h8.256v1.301h-1.93l4.817 13.616 1.73-4.946c2.273-6.34-1.858-8.313-1.858-9.728s1.144-2.559 2.559-2.559c0.079 0 0.15 0.007 0.222 0.014-2.394-2.273-5.625-3.667-9.185-3.667-4.646 0-8.742 2.366-11.143 5.968h4.739l0.007 1.301z"></path>
<path fill="#939393" d="M2.609 15.996c0 5.125 2.881 9.578 7.112 11.829l-6.040-17.076c-0.686 1.608-1.072 3.388-1.072 5.246z"></path>
<path fill="#939393" d="M27.647 9.399c0.193 1.129 0.136 2.394-0.157 3.667h0.050l-0.2 0.579c-0.122 0.415-0.272 0.843-0.443 1.265l-4.603 12.902c4.224-2.252 7.098-6.697 7.098-11.815-0.007-2.394-0.636-4.646-1.744-6.597z"></path>
<path fill="#939393" d="M11.872 28.734c1.301 0.422 2.688 0.65 4.131 0.65 1.372 0 2.702-0.207 3.945-0.593l-3.917-11.065-4.16 11.007z"></path>
<path fill="#939393" d="M27.311 4.689c-3.023-3.023-7.040-4.689-11.315-4.689s-8.291 1.665-11.315 4.689-4.682 7.033-4.682 11.308c0 4.274 1.665 8.291 4.689 11.315s7.040 4.689 11.315 4.689 8.291-1.665 11.315-4.689c3.023-3.023 4.689-7.040 4.689-11.315-0.007-4.274-1.673-8.291-4.696-11.308zM15.996 30.871c-8.198 0-14.867-6.669-14.867-14.867s6.669-14.867 14.867-14.867 14.867 6.669 14.867 14.867-6.662 14.867-14.867 14.867z"></path>
</svg>
