<!-- Generated by IcoMoon.io -->
<svg version="1.1" xmlns="http://www.w3.org/2000/svg" width="32" height="32" viewBox="0 0 32 32">
<title>wordpress</title>
<path fill="#00769d" d="M9.599 9.876h-1.767l4.818 13.619 2.697-7.707-2.091-5.911h-1.864v-1.298h8.257v1.298h-1.933l4.818 13.619 1.732-4.949c2.272-6.34-1.862-8.316-1.862-9.731s1.147-2.562 2.562-2.562c0.077 0 0.151 0.004 0.224 0.011-2.398-2.263-5.63-3.651-9.188-3.651-4.648 0-8.742 2.369-11.143 5.966h4.742v1.298h0z"></path>
<path fill="#00769d" d="M2.612 16c0 5.125 2.881 9.577 7.111 11.827l-6.042-17.078c-0.688 1.612-1.070 3.387-1.070 5.251z"></path>
<path fill="#00769d" d="M27.651 9.403c0.192 1.128 0.134 2.395-0.16 3.667h0.053l-0.202 0.578c-0.12 0.418-0.271 0.845-0.443 1.265l-4.607 12.905c4.221-2.252 7.095-6.7 7.095-11.818 0-2.399-0.631-4.65-1.736-6.597z"></path>
<path fill="#00769d" d="M11.871 28.738c1.301 0.421 2.688 0.65 4.129 0.65 1.374 0 2.7-0.207 3.949-0.592l-3.916-11.070-4.161 11.012z"></path>
<path fill="#00769d" d="M27.314 4.686c-3.022-3.022-7.040-4.686-11.314-4.686s-8.292 1.664-11.314 4.686-4.686 7.040-4.686 11.314c0 4.274 1.664 8.292 4.686 11.314s7.040 4.686 11.314 4.686 8.292-1.664 11.314-4.686c3.022-3.022 4.686-7.040 4.686-11.314s-1.664-8.292-4.686-11.314zM16 30.871c-8.2 0-14.871-6.671-14.871-14.871s6.671-14.871 14.871-14.871 14.871 6.671 14.871 14.871-6.671 14.871-14.871 14.871z"></path>
</svg>
